<svg xmlns="http://www.w3.org/2000/svg" width="861" height="769" style="shape-rendering:geometricPrecision;text-rendering:geometricPrecision;image-rendering:optimizeQuality;fill-rule:evenodd;clip-rule:evenodd"><path fill="#0d0d0d" d="M177.5 24.5q3.1.048 4 3a1803 1803 0 0 0-16.5 56 203.4 203.4 0 0 1 32.5-10v5a432 432 0 0 1-39 11 603 603 0 0 1 16-56.5l-1-1.5a164.7 164.7 0 0 1-31 9q-.32-2.466 1-4.5a2018 2018 0 0 0 34-11.5" style="opacity:.857"/><path fill="#121212" d="M700.5 236.5q-14.974-2.41-28.5-10l-1 373q-1.035 4.044-4.5 6.5a93098 93098 0 0 1-429 2.5 115.3 115.3 0 0 1-25-1.5 17.8 17.8 0 0 1-4.5-5.5q-1.496-235.62 1-471 1.108-1.611 3-2a1854 1854 0 0 0 46 15 2033 2033 0 0 0 47.5-17.5l45-1q5.415-33.565 24.5-61.5 31.974-38.748 74.5-12.5a148 148 0 0 1 11 9.5q26.705-30.426 64-14.5 26.423 17.452 37.5 47.5a189 189 0 0 1 8.5 32q34.515.5 69-1 30.107-51.476 89-39.5 58.952 20.136 56.5 82.5-7.676 50.68-56.5 66.5a107.2 107.2 0 0 1-28 2.5m-290-190q28.072-2.214 46 19.5A98.4 98.4 0 0 0 444 87.5a218 218 0 0 0-10.5 37 989 989 0 0 1-77 .5q5.149-29.95 21.5-55.5 12.396-17.175 32.5-23m83 0q27.682-2.283 45.5 19 19.851 26.264 25.5 59a1483 1483 0 0 1-77 1q-4.652-32.528-23-59.5 11.008-15 29-19.5m-34 25q12.198 14.887 17.5 34a216 216 0 0 1 4.5 20 442 442 0 0 1-42-1q4.704-28.629 20-53m-29 79q-48.502-.25-97 .5-12.029 3.756-24 7.5v-29q61.436.599 123 0a205 205 0 0 1-2 21m137 0h-131a307 307 0 0 0 2-21q63.417.609 127 0zm64 0h-58a1118 1118 0 0 1-2-21q33.005-.25 66 .5a85.7 85.7 0 0 0-6 20.5m-326 9a270 270 0 0 1-21.5 7 340 340 0 0 0-24.5-7 36.9 36.9 0 0 1 1-12l44-17a211 211 0 0 1 1 29m-50-2a169 169 0 0 0-14-4q-2.888.135-3.5 3-.75 206-.5 412a1100 1100 0 0 1-25.5 32 54495 54495 0 0 1 0-467l1-1a762 762 0 0 0 41.5 14.5q1.434 5.091 1 10.5m-18 418v29h-22a4.93 4.93 0 0 1 .5-3 757 757 0 0 0 21.5-26" style="opacity:.915"/><path fill="#0d0d0d" d="M234.5 74.5h5a615 615 0 0 1-11 38l1 2a94.3 94.3 0 0 1 21-6q.255 1.983-1 3.5a188 188 0 0 1-26 7q4.15-19.506 11-39a741 741 0 0 0-22 5.5v-4q11.512-2.34 22-7" style="opacity:.808"/><path fill="#ababab" d="M700.5 87.5q61.457-.68 78.5 58 6.76 56.763-44.5 80.5-53.413 17.527-86.5-27.5-28.818-52.892 14.5-94.5 17.009-13.078 38-16.5" style="opacity:1"/><path fill="#171717" d="M701.5 111.5q26.692-3.54 30.5 23 2.384 20.499-4 40-4.26 8.256-13.5 9.5-24.231 3.782-28.5-20.5-1-16.5 0-33 3.152-13.389 15.5-19" style="opacity:1"/><path fill="#e8e8e8" d="M702.5 116.5q22.34-3.229 24.5 19a107.2 107.2 0 0 1-2 33q-2.289 8.289-10.5 10.5-19.087 4.383-23.5-14.5a289 289 0 0 1 0-34q2.605-9.779 11.5-14" style="opacity:1"/><path fill="#151515" d="M703.5 118.5q15.648-2.072 19.5 13a240 240 0 0 1 0 31q-2.717 19.485-21.5 13.5-7.109-5.466-7.5-14.5a150.2 150.2 0 0 1 1-33q2.967-6.207 8.5-10" style="opacity:1"/><path fill="#a9a9a9" d="M704.5 123.5q10.686-2.292 13.5 8a256 256 0 0 1 0 32q-3.195 13.471-15.5 7a24 24 0 0 1-3.5-8q-1-15 0-30 1.264-5.55 5.5-9" style="opacity:1"/><path fill="#e4e4e4" d="M430.5 150.5q1.426 2.128 1 5-7.208.948-9.5 8-1.526 15.973 14.5 15.5 13.329-6.404 6.5-19.5a51 51 0 0 0-5.5-4q-1.428-2.318-1-5h131q1.426 2.128 1 5-12.948 4.075-8.5 17 6.694 9.225 17.5 4.5 6.98-5.683 4.5-14.5-2.543-4.792-7.5-7-1.428-2.318-1-5h58q-2.086 47.327 36.5 74 1 187.5 0 375-1.614 3.869-5.5 5h-353v-446q11.971-3.744 24-7.5 48.498-.75 97-.5" style="opacity:1"/><path fill="#e3e3e3" d="M255.5 157.5a25098 25098 0 0 1 .5 388 230 230 0 0 1-18.5 23q-.25-206 .5-412 .612-2.865 3.5-3a169 169 0 0 1 14 4" style="opacity:.985"/><path fill="#e4e4e4" d="M259.5 159.5a340 340 0 0 1 24.5 7 270 270 0 0 0 21.5-7v1q.5 220.251-1 440a28511 28511 0 0 1-44.5-55q-.75-193-.5-386" style="opacity:.999"/><path fill="#5e5e5e" d="M305.5 160.5a32571 32571 0 0 1 .5 442q-1.075-.816-1.5-2 1.5-219.749 1-440" style="opacity:1"/><path fill="#0d0d0d" d="M40.5 224.5h4a198 198 0 0 1-4.5 19q-1.517 1.255-3.5 1a215 215 0 0 1 4-20" style="opacity:.776"/><path fill="#e1e1e1" d="M105.5 227.5q33.48-2.264 33.5 31-6.7 25.987-33.5 22.5-28.2-11.15-17.5-39.5 6.397-10.169 17.5-14" style="opacity:.983"/><path fill="#e3e3e3" d="M700.5 236.5q.496 194.292-1 388.5a36.6 36.6 0 0 0 5.5 11.5 163 163 0 0 1 10.5 11 32856 32856 0 0 1-444 .5 192 192 0 0 1-32.5-22.5q-2.106-8.316-1.5-17a93098 93098 0 0 0 429-2.5q3.465-2.456 4.5-6.5l1-373q13.526 7.59 28.5 10" style="opacity:.978"/><path fill="#0d0d0d" d="M8.5 234.5a4.93 4.93 0 0 1 3 .5A406 406 0 0 1 26 247.5q-.285 4.996-4.5 1.5A321 321 0 0 1 9 237.5a4.93 4.93 0 0 1-.5-3" style="opacity:.768"/><path fill="#e1e1e1" d="M46.5 253.5q14.43.865 11.5 15-5.622 9.063-15.5 4.5-7.209-7.019-2.5-15.5 3.02-2.622 6.5-4" style="opacity:.96"/><path fill="#0d0d0d" d="M-.5 270.5v-3a288 288 0 0 1 21-1v4q-10.654.42-21 0" style="opacity:.856"/><path fill="#e1e1e1" d="M60.5 298.5q14.487-2.26 12.5 12-6.825 10.457-16 2-3.838-8.516 3.5-14" style="opacity:.952"/><path fill="#141414" d="M376.5 347.5q7.368 2.563 13 8.5 34.665 23.364 69-1 5.235-6.32 13-7 2 3 0 6-21.696 18.091-50 20.5-26.637-2.195-45.5-21-1.017-3.147.5-6" style="opacity:1"/><path fill="#151515" d="M530.5 347.5a10.1 10.1 0 0 1 6 1.5q27.508 28.375 64 13a119.2 119.2 0 0 0 22-14q6.25-1.75 4.5 4.5-26.942 25.314-63.5 20.5-19.483-5.863-33.5-20.5-.96-2.648.5-5" style="opacity:1"/><path fill="#111" d="M500.5 471.5q14.432-2.16 20.5 11 1.93 22.57-20.5 19.5-14.956-7.868-8.5-23.5 3.662-4.43 8.5-7" style="opacity:1"/><path fill="#e0e0e0" d="M237.5 604.5v-29q8.71-14.245 20-27a3899 3899 0 0 1 47 56.5q-33.756 1.245-67-.5" style="opacity:.996"/><path fill="#828282" d="M309.5 158.5v446h353q-176.748 1.5-354 1-.5-223.752 1-447" style="opacity:1"/><path fill="#e1e1e1" d="M769.5 616.5q34.186 1.932 33.5 36-7.279 28.51-36.5 25.5-29.263-9.269-23.5-39.5 6.77-19.035 26.5-22" style="opacity:.985"/><path fill="#0d0d0d" d="M860.5 720.5v2q-.975.456-2 1a3735 3735 0 0 0-46-15.5q-1.255-1.517-1-3.5a525 525 0 0 1 49 16" style="opacity:.884"/><path fill="#e1e1e1" d="M725.5 705.5q15.382-.114 18 15-1.434 14.184-15.5 16-13.713-1.713-15.5-15.5 1.52-12.246 13-15.5" style="opacity:.973"/><path fill="#0d0d0d" d="M802.5 718.5q8.664 5.158 13 14a8.4 8.4 0 0 1-4-.5l-9.5-9.5q-.868-2.143.5-4" style="opacity:.787"/><path fill="#0d0d0d" d="M799.5 768.5h-3q-4.49-18.94-9-38 2.889-5.98 4.5 1a487 487 0 0 1 7.5 37" style="opacity:.769"/></svg>