<svg xmlns="http://www.w3.org/2000/svg" width="819" height="787"><path fill="#131313" d="M390 73c3.468 2.73 6.892 5.51 10.29 8.326 3.075 2.548 6.16 5.041 9.386 7.397C418.047 94.837 424.348 100.659 427 111l1.766-.402c38.696-8.336 89.129-2.635 123.093 18.152A109 109 0 0 1 559 134l2.512 1.98c12.602 10.596 21.003 25.526 25.238 41.333 2.294 7.28 7.413 11.082 13.25 15.687q2.625 2.155 5.25 4.313l2.719 2.195c5.51 4.53 10.866 9.238 16.232 13.936a238 238 0 0 0 3.74 3.166l1.891 1.574 1.702 1.396c3.533 3.423 4.614 7.724 4.841 12.482-.548 5.755-2.384 9.225-6.437 13.25-4.188 3.365-8.635 4.264-13.938 3.688-6.273-2.218-11.78-5.73-17.437-9.187l-2.795-1.694A2251 2251 0 0 1 589 234l-.576 1.81c-7.31 22.69-16.392 42.8-33.807 59.506-15.514 16.152-17.316 38.447-18.117 59.688l-.123 3.042q-.256 6.361-.502 12.723-.185 4.68-.375 9.36l-.107 2.854a229 229 0 0 1-1.179 15.848c-.664 6.725-.635 13.72.286 20.419 3.752 29.906-4.77 61.642-22.988 85.598-3.613 4.597-7.476 8.923-11.512 13.152l-1.777 2.004c-18.315 19.837-48.135 31.862-74.795 33.117-33.882 1.176-64.835-8.45-89.963-31.793L331 519l-2.496-2.266c-20.527-19.342-32.732-49.059-33.719-77.007-.784-34.385 10.006-65.573 33.838-90.744 5.998-6.158 12.462-11.25 19.576-16.057 2.789-1.793 2.789-1.793 4.801-3.926q-.05-2.786-.11-5.57c.208-4.604 1.136-9.26 3.11-13.43l2.41-1.129c4.34-3.135 4.693-7.955 5.84-12.996l.771-3.273c3.24-14.39 3.686-26.196-.021-40.602-.74-3.285-1.433-6.58-2.125-9.875l-.516-2.378C355.68 208.48 360.689 175.535 377 148c6.813-10.507 15.366-20.274 26-27l-1.352-1.2c-2.463-2.69-3.67-5.836-5.171-9.132-3.63-6.56-8.507-10.494-14.54-14.73l-2.379-1.69C347.608 69.886 347.608 69.886 310 62c-6.036 1.572-11.3 3.798-15 9-2.482 5.791-2.187 10.572-.117 16.441C297.575 93.607 300.826 100.76 307 104c4.764-.346 7.734-1.843 11.688-4.437C324.276 96.192 329.396 94.022 336 94c3.218 1.287 4.465 1.93 6 5 .876 7.732.733 13.8-4.16 20.063-6.397 6.736-12.574 9.91-21.965 10.25-11.583-.27-22.004-3.223-30.766-10.989C273.306 105.91 266.821 88.986 267 72c.853-9.499 4.649-18.699 12-25 38.456-24.635 80.052 2.377 111 26m-39-20 3 3 2-1zm5 3c3.3 3.6 7.08 6.196 11.125 8.875 8.51 5.749 16.601 11.96 24.635 18.352a688 688 0 0 0 6.724 5.238c9.53 7.43 16.129 14.08 20.516 25.535l4-1c-2.586-16.133-21.768-26.485-33.938-35.466a540 540 0 0 1-6.18-4.679C370.412 61.937 370.412 61.937 356 56m-67 10c-4.627 5.252-5.536 8.556-5.469 15.496 1.261 9.427 6.49 17.706 13.965 23.465L299 106l2-1-1.39-1.871C292.341 93.098 288.608 85.689 290 73c1.559-4.364 4.003-7.486 7-11-3.363 0-5.361 2.047-8 4m45 32c-1.81 1.81-1.216 4.745-1.312 7.188-.38 5.418-1.022 8.623-4.688 12.812l-2.25 2.875L324 123c5.396-1.053 8.138-3.597 11.512-7.71 2.328-3.582 3.326-7.031 3.488-11.29-.495-2.96-.495-2.96-2-5zm55.58 39.513C368.25 161.708 362.07 194.712 364 226c.822 8.638 2.961 16.931 5.125 25.313 5.082 19.746 1.092 37.431-4.125 56.687 7.672 2.129 15.046 3.546 23 4 2.578-5.549 4.189-11.061 5.625-17l.656-2.617c4.008-16.28 2.934-29.644-.993-45.753-8.103-33.34-5.083-67.641 12.77-97.394 10.949-17.7 26.363-30.386 46.692-35.548L456 113v-1c-25.236-.901-48.914 6.863-66.42 25.513M589 189c-.316 3.587-.18 6.579 1 10 2.64 2.488 5.344 4.318 8.434 6.21 2.648 1.847 3.603 2.756 4.566 5.79.266 3.153-.052 5.98-1 9-3.177 3.03-5.003 3.926-9.375 4.25L590 224l-1 5c2.968 2.05 5.977 4.032 9 6l1.753 1.151C610.02 243.445 610.02 243.445 622 245c3.74-1.284 6.341-3.235 8.938-6.25 1.421-3.68 1.675-6.854 1.062-10.75-1.35-2.925-1.35-2.925-3-5l-1.187 1.438c-2.221 1.914-3.947 2.175-6.813 2.562l2 3h2v7c-3.123-.486-5.996-.999-9-2l-2 4-5-1-1-9c2.763-.597 5.16-1 8-1l2-2-2-4c2.007-3.01 2.839-3.63 6-5-6.268-5.808-12.621-11.387-19.277-16.75-3.723-3.076-7.276-6.323-10.825-9.598-1.604-1.761-1.604-1.761-2.898-1.652m30 33 4 1Zm-8 11 1 2Zm-247 79q-1.259 3.404-2.5 6.813l-.723 1.947C359.73 323.65 359 325.9 359 329c3.082.673 6.166 1.337 9.25 2l2.645.578 2.558.547 2.349.508c2.484.477 2.484.477 6.198.367l5-17q-4.905-1.005-9.812-2l-2.815-.578-2.705-.547-2.491-.508c-2.302-.45-2.302-.45-5.177-.367m-7 20c-5.772 18.3-5.772 18.3-10 37 2.647 1.46 3.894 2 7 2l.629-2.719c2.676-10.839 6.126-21.914 12.371-31.281v-3zm14 3c-7.753 15.687-14.155 29.929-14.25 47.688l-.062 2.857c-.042 7.475.462 15.89 5.875 21.58 2.189 2.078 2.189 2.078 4.437 1.875l.12-1.762c1.619-22.855 5.746-44.113 12.3-66.065.666-2.12.666-2.12.58-4.173zm-20 1c-11.95 8.458-21.834 16.75-30 29l22 3c2.018-6.053 3.875-12.133 5.688-18.25l1.01-3.336.939-3.18.866-2.899c.753-2.344.753-2.344-.503-4.335m-39.187 42.176A322 322 0 0 0 310 382l-1.687 3.605c-12.058 28.124-13.232 60.893-2.09 89.5 12.38 30.176 34.793 52.84 64.777 65.895 28.313 11.277 59.953 11.364 88.191-.309 17.72-7.707 31.697-18.57 44.809-32.691v-1l-1.686-.523c-5.353-1.714-10.33-3.784-15.365-6.27C464.047 488.843 464.047 488.843 439 488a405 405 0 0 1-7.625.625l-3.613.262c-19.703.593-41.734-5.209-56.824-18.324-5.001-3.861-9.887-3.01-15.938-2.563-3.437.184-6.875.34-10.312.5l-2.808.14c-10.625.506-21.246.456-31.88.36-.395-2.637-.395-2.637 0-6 2.072-2.24 3.936-3.96 6.313-5.812l1.924-1.572A597 597 0 0 1 324 451c1.964-1.597 3.919-3.206 5.875-4.812l2.637-2.141c3.568-2.935 7.033-5.98 10.488-9.047l-.84-3.848c-2.215-10.424-3.837-20.489-4.16-31.152l-9-1v-2l10-1 1-9c-2.236-1.118-3.649-1.194-6.133-1.316l-2.441-.127-2.551-.12-2.574-.13q-3.15-.159-6.301-.307v-2h21l1-11c-4.675-1.431-9.115-2.503-14-3l-2.383-.516c-7.938-1.116-10.407 3.12-13.805 9.692M346 373l-1 10c3.94 1.366 3.94 1.366 8 2v-10zm-2 14-1 9h11l-1-7c-4.426-1.445-4.426-1.445-9-2m-2 13c-.865 22.584 4.849 42.089 20 59 15.176 16.067 36.932 25.794 59 27 3.006.064 5.993.048 9 0-2.637-1.758-5.042-2.844-7.987-3.952-13.77-5.192-25.58-12.616-36.013-23.048-1.39-.296-2.788-.562-4.187-.812-5.044-1.113-8.986-2.576-12.067-6.981-2.486-4.479-3.381-8.033-2.746-13.207a343 343 0 0 1 1.688-3.937c1.702-4.68 1.185-8.638.375-13.438l-.316-2.129c-.396-2.31-.396-2.31-1.747-5.496-2.904-1.897-2.904-1.897-6-3-3.14-3.314-4.255-5.638-6-10zm188 23-.516 1.614C522.34 446.692 512.92 463.047 494 477c1.338 3.487 2.859 6.78 4.602 10.082l1.484 2.822 1.539 2.909 1.563 2.966Q505.09 499.391 507 503c15.362-14.835 23.452-41.777 24.077-62.564.084-5.814.028-11.623-.077-17.436zm-159 13c-1.776 3.553-.996 7.254 0 11 2.265 3.89 4.555 6.529 8.875 7.938L382 455v-2l-3.375-1.687c-2.524-1.454-3.522-2.142-5.062-4.688-.629-2.93-.563-5.636-.563-8.625zm-58 29v1c15.032.144 29.988-.218 45-1v-1c-15.038-.114-29.992-.013-45 1"/><path fill="#d2d2d2" d="M527.867 133.004A127 127 0 0 1 535 139l2.105 1.824c15.468 14.27 23.9 37.831 25.02 58.49C563.377 231.59 554.473 262.365 533 287a194 194 0 0 1-5.281 5.207C515.877 304.56 510.4 319.184 509 336c-8.335-.575-16.425-1.868-24.625-3.437l-3.523-.659c-4.754-.895-9.492-1.816-14.21-2.879-4.417-.99-8.849-1.854-13.298-2.681l-2.386-.448q-3.728-.7-7.458-1.396-4.923-.92-9.844-1.844l-2.226-.413a377 377 0 0 1-13.308-2.776c-2.958-.651-5.929-1.21-8.907-1.756l-3.604-.664-3.673-.672-3.78-.695q-4.578-.843-9.158-1.68c-1.125-3.374-.873-4.178.145-7.465l.8-2.656.868-2.817C394.17 289.694 394.17 289.694 396 278l.32-3.14c.508-9.85-1.713-18.715-4.031-28.231-8.12-33.385-5.028-67.561 12.753-97.377 11.092-18.056 26.54-30.477 46.958-36.565 24.757-5.15 55.654 6.19 75.867 20.317"/><path fill="#d1d1d1" d="M380 337c7.576.594 14.927 1.83 22.375 3.313l3.487.682a4186 4186 0 0 1 21.771 4.335c14.773 2.97 29.574 5.802 44.367 8.67 1.268 3.804.16 5.233-1.554 8.697l-1.134 2.24c-6.48 13.397-9.137 25.287-10.312 40.063l-6 1v3l6-1v4l-2.937.375L453 413l-1 2h8v4h-9v3l1.977-.281c2.85-.236 5.211-.28 8.023.281 2.001 1.838 3.26 3.731 4.715 6.02 1.751 2.698 3.282 3.836 6.285 4.98 6.21.815 9.103-.321 14.191-3.812 2.319-1.523 4.031-2.115 6.809-2.188 3.313.938 3.313.938 6 2-2.325 14.984-11.013 27.837-22 38l-1.59 1.605c-10.523 10.078-26.948 16.752-41.473 17.618-15.347-1.164-31.085-10.75-41.949-21.149-4.223-4.007-7.135-5.693-12.883-6.633-4.787-1.003-7.556-3.714-10.418-7.503-2.609-4.543-3.023-7.736-2.687-12.938q.766-2.205 1.625-4.375c1.59-4.347 1.18-7.092-.074-11.473-.799-3.12-.687-5.947-.551-9.152l2.23-.297c6.192-.8 6.192-.8 11.395-3.953C383 407 383 407 385.293 407.188A75 75 0 0 1 392 409l1-2-3.437-.875L386 405l-1-2 1-2 7 2 1-2-2.375-.937C389 399 389 399 387 398v-5l1.688.875c2.397 1.166 4.828 2.159 7.312 3.125l-2.312-2.312L391 392l-1.643-1.38c-1.802-2.152-1.744-3.45-1.755-6.233l-.02-2.763.043-2.937.029-3.002c.243-11.94 2.26-22.244 8.346-32.685-3.165.682-3.165.682-4.316 3.336l-1.247 3.039-1.253 2.96c-3.448 10.673-3.538 21.334-3.663 32.458-.185 8.313-.546 15.637-6.021 22.207-4.112 3.29-7.385 3.097-12.5 3-1.298-24.193 4.084-50.537 13-73m-9 99c-1.776 3.553-.996 7.254 0 11 2.265 3.89 4.555 6.529 8.875 7.938L382 455v-2l-3.375-1.687c-2.524-1.454-3.522-2.142-5.062-4.688-.629-2.93-.563-5.636-.563-8.625z"/><path fill="#0d0d0d" d="M765 340c2.311 2.302 2.958 3.668 3.37 6.929l-.01 3.474.013 3.995-.032 4.376v4.613c.002 4.173-.016 8.346-.037 12.52-.019 4.361-.02 8.723-.024 13.084-.01 8.26-.034 16.518-.064 24.777-.033 9.402-.05 18.805-.065 28.207-.031 19.342-.084 38.684-.151 58.025l2.858-.08a972 972 0 0 1 10.54-.195q2.276-.038 4.553-.102c2.187-.061 4.373-.09 6.56-.111l3.984-.08c4.378.71 5.844 2.085 8.505 5.568.063 3.125.063 3.125-1 6-2.457 2.544-3.83 2.983-7.392 3.34-1.32-.015-2.639-.03-3.999-.047l-2.135-.013a702 702 0 0 1-6.724-.092q-2.285-.024-4.57-.042-5.59-.051-11.18-.146l.013 1.833q.066 9.441.097 18.882.016 3.525.04 7.048c.025 3.376.036 6.752.045 10.128l.032 3.185v2.972l.014 2.61c-.264 2.57-.863 4.168-2.241 6.342-3.05 1.525-5.642 1.236-9 1-1.701-1.202-1.701-1.202-3-3-.36-2.297-.36-2.297-.34-5.022v-3.094l.047-3.333.013-3.418c.017-3.607.054-7.213.092-10.82q.024-3.666.042-7.33.05-8.992.146-17.983l-3.99.027q-18.607.12-37.213.18-9.565.03-19.132.095-9.23.063-18.46.078-3.522.01-7.046.043c-3.287.029-6.573.033-9.86.031l-2.95.044c-4.258-.026-6.728-.143-10.484-2.291C643 510 643 510 642.86 506.238c.958-4.823 3.446-8.207 6.391-12.05q1.65-2.241 3.293-4.485l1.728-2.334c2.856-3.914 5.57-7.923 8.292-11.932l4.904-7.19a3650 3650 0 0 1 20.408-29.56 3599 3599 0 0 0 19.634-28.505c3.71-5.43 7.442-10.844 11.17-16.261a4996 4996 0 0 0 3.887-5.663c4.115-6 8.243-11.99 12.403-17.957l2.1-3.013 4.212-6.033c4.185-6 8.264-12.039 12.14-18.243 3.34-4.257 6.52-4.52 11.579-3.012m-12 29a133 133 0 0 0-3.062 4.563c-4.148 6.302-8.433 12.5-12.75 18.687-4.583 6.57-9.16 13.142-13.688 19.75a3041 3041 0 0 1-13.375 19.313A2583 2583 0 0 0 695.5 452.5a2696 2696 0 0 1-14.75 21.375l-2.055 2.954c-2.893 4.157-5.79 8.31-8.71 12.448l-1.3 1.85q-1.636 2.324-3.279 4.643c-1.584 2.073-1.584 2.073-1.406 4.23h90V369zM140 341c2.374 3.56 2.247 5.06 2.24 9.283l.009 3.99-.022 4.388v4.612c.002 4.177-.01 8.355-.024 12.532-.013 4.364-.014 8.729-.016 13.093-.006 8.266-.023 16.532-.043 24.798-.022 9.41-.033 18.82-.043 28.23Q142.069 470.961 142 500l2.858-.08a972 972 0 0 1 10.54-.195q2.276-.038 4.553-.102c2.187-.061 4.373-.09 6.56-.111l3.984-.08c4.378.71 5.844 2.085 8.505 5.568.063 3.125.063 3.125-1 6-2.457 2.544-3.83 2.983-7.392 3.34-1.32-.015-2.639-.03-3.999-.047l-2.135-.013a702 702 0 0 1-6.724-.092q-2.285-.024-4.57-.042-5.59-.051-11.18-.146l.027 1.871c.088 6.424.149 12.847.193 19.272q.03 3.596.082 7.193c.048 3.445.071 6.89.089 10.336l.062 3.252.001 3.032.027 2.665c-.648 3.203-1.934 4.392-4.481 6.379-5.976.734-5.976.734-8.694-1.213-1.742-2.384-1.668-3.87-1.647-6.81l.001-3.093.047-3.333.013-3.418c.017-3.607.054-7.213.093-10.82q.022-3.666.04-7.33.052-8.992.147-17.983l-3.99.034q-18.607.152-37.213.225c-6.377.026-12.754.062-19.132.118q-9.23.08-18.46.097-3.522.015-7.046.055c-3.287.036-6.573.04-9.86.039l-2.95.054c-4.603-.035-6.692-.136-10.488-2.944C17 509 17 509 16.921 505.578c1.212-4.019 2.784-6.495 5.329-9.828q1.373-1.838 2.738-3.68l1.48-1.98c2.752-3.755 5.354-7.613 7.97-11.465l3.351-4.914 1.646-2.415c6.756-9.91 13.584-19.768 20.44-29.608a3615 3615 0 0 0 19.656-28.537 3705 3705 0 0 1 20.219-29.276 2818 2818 0 0 0 18.202-26.43l1.743-2.562 1.681-2.456q1.649-2.465 3.209-4.987l1.532-2.448 1.324-2.184c3.798-4.405 7.58-4.132 12.559-1.808m-13 28c-1.394 2-2.735 4.018-4.062 6.063-4.517 6.868-9.17 13.634-13.876 20.375-4.54 6.507-9.077 13.016-13.562 19.562a3039 3039 0 0 1-13.375 19.313A2584 2584 0 0 0 67.5 455.5c-6.202 9.092-12.482 18.13-18.773 27.16l-1.859 2.673a619 619 0 0 1-3.9 5.502l-1.945 2.724-1.76 2.443c-1.441 1.886-1.441 1.886-1.263 3.998h90V369z"/><path fill="#e1e1e1" d="M176.75 203.75c9.11 6.508 15.657 16.02 17.969 27.066C196.4 243.88 193.83 255.363 186 266c-6.837 8.536-16.037 14.397-27 16-12.558 1.04-23.679-1.362-33.785-9.094-7.504-6.458-14.36-15.575-15.408-25.784-.536-14.064.685-25.939 10.19-37.126 15.678-15.618 38.107-17.677 56.753-6.246M532 680c8.433 6.103 15.701 14.317 17.754 24.813 1.457 12.948-.949 23.65-8.754 34.187-6.877 7.752-16.403 12.327-26.691 13.238-11.214.29-21.023-2.471-29.309-10.238-8.396-8.31-12.208-16.259-12.312-28.062-.012-11.65 3.167-20.41 11.312-28.938 12.917-12.031 32.828-14.466 48-5"/><path fill="#d1d1d1" d="M564 219c3.37.653 5.843 1.943 8.766 3.723l2.695 1.63 2.789 1.71 2.836 1.72q3.46 2.102 6.914 4.217c-2.357 23.81-16.372 46.997-33.383 63.316-15.433 16.067-17.335 38.258-18.082 59.407l-.236 6.072q-.179 4.685-.349 9.37c-.475 13.03-1.278 25.901-2.95 38.835-1.768-2.652-2.547-4.383-3.445-7.36-4.147-13.317-8.761-25.377-17.242-36.577-1.454-2.106-1.454-2.106-2.313-4.063 1.063-3.75 1.063-3.75 2.055-5.672C514 350.536 513.774 345.118 514 340l-3-2c1.795-17.945 6.525-30.88 19-44 19.644-22.115 29.249-45.917 34-75"/><path fill="#cecece" d="m441.875 162.688 2.105-.05c4.792-.004 8.025.719 12.02 3.362 3.556 3.968 6.348 7.988 9.047 12.602l1.118 1.897q1.798 3.06 3.585 6.126a5268 5268 0 0 0 6.366 10.847 572 572 0 0 0 8.876 14.512l2.364 3.78a423 423 0 0 0 3.388 5.34c4.382 6.782 7.82 12.611 7.256 20.896-1.904 6.832-5.363 9.837-11.312 13.375-5.286 1.23-9.9.634-14.622-2.031-3.422-2.616-5.974-5.405-8.691-8.719l-3.152-3.762-1.613-1.939c-2.067-2.47-4.17-4.91-6.275-7.348a682 682 0 0 1-13.91-16.654 302 302 0 0 0-5.695-6.656l-1.742-1.983a619 619 0 0 0-3.384-3.806c-9.127-10.35-9.127-10.35-10.014-16.165 1.298-8.636 3.771-14.506 10.629-20.085 4.531-3.12 8.19-3.565 13.656-3.54"/><path fill="#cfcfcf" d="M366.188 62.813c8.734 6.236 17.244 12.77 25.636 19.458a933 933 0 0 0 6.645 5.217q2.142 1.692 4.281 3.387l1.95 1.512c6.272 5.027 11.179 11.157 14.3 18.613v3l-9 3-1.031-1.871-1.469-2.567-1.406-2.496c-6.987-10.232-15.735-16.36-25.969-23.004l-4.489-2.945C360.737 74.329 360.737 74.329 345 66l-2.266-1.064c-13.844-6.285-27.73-8.74-42.546-4.186C293.499 63.418 288.133 66.252 285 73c-1.887 9.903 1.744 17.874 7 26 4.5 5.439 9.312 7.422 16.313 8.285 8.239.502 13.829-2.954 20.687-7.097C331 99 331 99 333 99c1.109 5.322 1.297 9.923-1 15-3.014 4.226-6.527 8.302-11 11-8.755 1.424-15.646-.25-23-5l-2.687-1.687c-11.448-11.448-18.517-27.288-18.75-43.375.075-10.13 2.537-16.688 9.527-24.153 24.153-22.572 57.899-3.513 80.098 12.028M387 316c12.207 1.035 24.44 4.184 36.438 6.563l6.746 1.33q6.945 1.368 13.89 2.74c9.813 1.938 19.629 3.862 29.445 5.783l8.744 1.715c8.57 1.68 17.137 3.354 25.737 4.869q.04 3.063.063 6.125l.035 3.445c-.093 3.243-.484 6.25-1.098 9.43-6.809-.658-13.421-1.77-20.125-3.117l-3.263-.646q-5.307-1.051-10.612-2.112-7.537-1.494-15.074-2.984l-3.921-.777a5325 5325 0 0 0-28.275-5.505l-1.994-.383q-8.67-1.667-17.343-3.327-5.3-1.013-10.6-2.032c-1.054-.2-2.107-.4-3.193-.608l-2.916-.56-2.536-.485C385 335 385 335 382 334c1.585-14.585 1.585-14.585 5-18M476 355l31 6c0 17.412 0 17.412-.437 24.563l-.12 2.244c-.238 4.126-.678 8.123-1.443 12.193h-11c-.462-13.473.9-24.739 7-37-7.027 6.057-7.902 14.246-9 23-.35 5.67-.411 11.343-.479 17.021-.197 8.45-.495 17.272-6.021 24.041-3.9 3.022-6.309 4.503-11.367 4.391-4.526-.961-7.77-4.403-10.266-8.156-6.538-17.318-1.235-39.077 5.692-55.223 2.062-4.399 4.268-8.729 6.441-13.074"/><path fill="#d0d0d0" d="M477 110c28.979-.925 58.882 5.608 82 24l2.512 1.98C575.636 147.855 584.488 165.038 588 183c-4.468-2.793-8.292-5.941-12.168-9.512-3.475-2.822-6.723-2.597-11.02-2.55l-3.292.027L559 171l-.807-1.601C551.206 155.488 551.206 155.488 542 143l-1.863-2.457C525.454 123.069 498.583 114.752 477 111zM507 404c7.103.592 14.274 1.545 21 4 3.403 5.104 2.79 11.06 2 17-4.518 21.116-16.381 37.33-32.906 50.77L495 477c-3.884-1.295-4.305-2.72-6.25-6.25l-1.64-2.89c-1.276-3.289-1.277-4.57-.11-7.86 1.348-2.262 1.348-2.262 3.063-4.687 5.03-7.6 8.393-15.946 11.937-24.313l12 4c-2.185-2.406-4.26-3.795-7.187-5.187L503 428l2-9c5.437.559 9.918 1.94 14.938 4.063l2.072.853q2.499 1.034 4.99 2.084v-3l-3.75-1.25L506 416z"/><path fill="#171717" d="M299 41c-1 3-1 3-2.785 4.07l-2.277 1.055c-7.428 3.945-12.601 9.769-15.371 17.705-.963 3.685-1.013 7.255-.942 11.045l.033 2.405c.38 13.997 7.196 29.876 17.342 39.72 8.495 6.122 15.529 8.048 26 7 6.497-2.029 11.43-5.198 15-11 1.565-4.272 2.39-7.637 1.125-12.062L336 99c-6.343 1.806-11.57 4.256-17 8l-1-2h-7c7.247-6.312 15.222-10.69 25-11 3.218 1.287 4.465 1.93 6 5 .876 7.732.733 13.8-4.16 20.063-6.397 6.736-12.574 9.91-21.965 10.25-11.583-.27-22.004-3.223-30.766-10.989C273.306 105.91 266.821 88.986 267 72c.849-9.452 4.629-18.765 12-25 13.56-8.07 13.56-8.07 20-6"/><path fill="#292627" d="M453.188 437.5c4.443 2.507 7.044 5.721 8.812 10.5.95 5.924.497 10.988-3 16-4.536 4.34-8.11 6.618-14.312 7.438-6.16-.731-10.687-3.873-14.688-8.563-2.979-4.614-2.856-9.59-2-14.875 2.355-4.892 5.717-7.81 10-11 5.31-1.77 10.074-1.698 15.188.5"/><path fill="#232323" d="m441.875 162.688 2.105-.05c4.792-.004 8.025.719 12.02 3.362 3.556 3.968 6.348 7.988 9.047 12.602l1.118 1.897q1.798 3.06 3.585 6.126a5268 5268 0 0 0 6.366 10.847 572 572 0 0 0 8.876 14.512l2.364 3.78a423 423 0 0 0 3.388 5.34c4.382 6.782 7.82 12.611 7.256 20.896-1.904 6.832-5.363 9.837-11.312 13.375-5.286 1.23-9.9.634-14.622-2.031-3.422-2.616-5.974-5.405-8.691-8.719l-3.152-3.762-1.613-1.939c-2.067-2.47-4.17-4.91-6.275-7.348a682 682 0 0 1-13.91-16.654 302 302 0 0 0-5.695-6.656l-1.742-1.983a619 619 0 0 0-3.384-3.806c-9.127-10.35-9.127-10.35-10.014-16.165 1.298-8.636 3.771-14.506 10.629-20.085 4.531-3.12 8.19-3.565 13.656-3.54m-15.687 9.25c-3.845 5.381-4.934 9.257-4.82 15.91 1.178 5.87 5.477 9.118 9.632 13.152a226 226 0 0 1 4.25 5.188c4.156 5.132 8.455 10.124 12.794 15.101 4.571 5.249 9.059 10.563 13.519 15.906 2.38 2.74 4.84 5.273 7.437 7.805l1-8h5v9l-5 1c3.658 3.78 5.474 5.16 10.75 5.313 4.87-.064 7.586-.917 11.25-4.313 2.929-4.393 3.402-7.77 3-13l-1-2h-2l-1 2c-3.735-.498-5.812-.875-9-3l1-4h7c-1.527-4.193-3.61-7.936-5.895-11.75l-1.163-1.96a2347 2347 0 0 0-3.755-6.29q-1.29-2.165-2.584-4.329-3.201-5.354-6.417-10.7a4873 4873 0 0 1-3.289-5.477 1648 1648 0 0 0-5.334-8.806l-1.553-2.58-1.444-2.346-1.22-2.002c-2.34-3.06-4.711-4.548-8.346-5.76-8.762-.616-16.638-1.09-22.812 5.938"/><path fill="#272324" d="M391.125 425.625c4.52 2.458 7.557 5.739 9.875 10.375.557 5.957.522 10.952-3 16-4.759 4.552-8.303 6.69-14.812 7.438-4.953-.14-8.475-2.277-12.188-5.438-4.128-5.292-5.55-9.288-5-16 1.951-6.194 5.323-9.931 11-13 5.054-1.685 9.285-1.58 14.125.625M371 436c-1.776 3.553-.996 7.254 0 11 2.265 3.89 4.555 6.529 8.875 7.938L382 455v-2l-3.375-1.687c-2.524-1.454-3.522-2.142-5.062-4.688-.629-2.93-.563-5.636-.563-8.625z"/><path fill="#111" d="M454 187c4.177 3.663 7.339 7.953 10.563 12.438l1.42 1.947A602 602 0 0 1 470 207l2.309 3.219c2.498 4.108 2.293 6.04 1.691 10.781-1.794 2.81-3.019 4.51-6 6-5.684.56-5.684.56-8 0-4.216-3.595-7.348-7.966-10.562-12.437l-1.42-1.948A624 624 0 0 1 444 207l-2.305-3.187c-2.418-4.013-2.692-7.264-1.695-11.813 4.415-5.577 7.104-6.636 14-5"/><path fill="#e1e1e1" d="M65.938 171.684c4.327 2.247 6.98 4.818 9.062 9.316.895 5.582.607 10.755-2.613 15.523-3.248 3.459-6.953 5.312-11.696 5.633-6.195-.418-10.354-2.585-14.566-7.219-1.77-4.622-1.777-9.056-1.125-13.937 4.118-8.235 11.824-12.532 20.938-9.316"/><path fill="#cdcdcd" d="m295 42-2.195 1.215C285.963 47.238 281.646 50.93 278 58l-1.023 1.79C272.78 68.525 273.93 82.046 277 91c5.342 14.736 12.38 28.105 27 35-2.73 1.079-3.9 1.033-6.734.102-14.273-6.989-22.282-19.441-27.704-34.102-3.411-11.373-3.8-23.274 1.188-34.187C274.994 50.17 285.106 38.023 295 42"/><path fill="#a6a6a6" d="M346.137 437.938c2.699 1.539 3.44 3.419 4.8 6.187 1.794 3.509 3.58 6.778 5.938 9.938C359 457 359 457 359 459c-13.71 1.917-27.167 2.24-41 2 4.826-4.878 9.846-9.472 15-14l2.953-2.617 2.922-2.508 2.68-2.32C344 438 344 438 346.137 437.937M482 464c2.744 2.415 4.073 4.897 5.625 8.188 2.91 6.003 6.13 11.785 9.479 17.555C500 494.79 500 494.79 500 497c-4.665-1.438-8.995-3.33-13.367-5.477l-2.06-1q-3.226-1.57-6.448-3.148l-4.398-2.14Q468.36 482.621 463 480v-2c1.807-1.317 3.673-2.554 5.563-3.75 4.834-3.135 9.178-6.378 13.437-10.25"/><path fill="#cecece" d="M510 367c3.899 3.421 6.068 7.282 8.438 11.813l1.187 2.252C528 397.408 528 397.408 528 405c-6.708-1.179-13.362-2.476-20-4z"/><path fill="#cdcdcd" d="M571 173c3.393 1.909 6.128 4.389 9 7l2.531 2.105c6.957 5.867 6.957 5.867 7.469 9.895.039 2.333.045 4.667 0 7l-1.793-1.207a890 890 0 0 0-4.894-3.258 262 262 0 0 1-5-3.41c-3.066-1.491-4.937-1.607-8.313-1.125l-6 4-4-20c3.576-1.788 7.111-1.73 11-1"/><path fill="#111" d="M391.125 425.625c4.52 2.458 7.557 5.739 9.875 10.375.557 5.957.522 10.952-3 16-4.759 4.552-8.303 6.69-14.812 7.438-4.953-.14-8.475-2.277-12.188-5.438-4.128-5.292-5.55-9.288-5-16 1.951-6.194 5.323-9.931 11-13 5.054-1.685 9.285-1.58 14.125.625M374 431c-1.826 2.514-1.826 2.514-3 5l-1 2c-.241 5.144.543 9.007 3.875 13 2.565 2.784 4.563 3.812 8.395 4.273 6.026.249 6.026.249 11.23-2.46 3.932-4.424 4.979-7.831 4.82-13.82-.682-4.247-3.25-7.053-6.382-9.805-6.438-3.946-12.345-2.891-17.938 1.812"/><path fill="#c9c9c9" d="M328 63c6.256.499 11.137 2.585 16.75 5.313l2.784 1.344c18.518 9.15 45.295 22.97 56.404 41.03l1.777 2.825C407 116 407 116 407 119l-6 1-1.137-2.414-1.55-3.211-1.512-3.164c-3.823-6.817-8.565-10.85-14.863-15.273l-2.38-1.69C355.026 76.91 355.026 76.91 328 64z"/><path fill="#1f1f1f" d="M453.188 437.5c4.443 2.507 7.044 5.721 8.812 10.5.95 5.924.497 10.988-3 16-4.536 4.34-8.11 6.618-14.312 7.438-6.16-.731-10.687-3.873-14.688-8.563-2.979-4.614-2.856-9.59-2-14.875 2.355-4.892 5.717-7.81 10-11 5.31-1.77 10.074-1.698 15.188.5m-20.563 8.25c-2.005 4.01-2.336 6.86-1.625 11.25 1.306 3.774 2.635 5.662 5.563 8.375 4.608 2.179 8.423 2.305 13.437 1.625 4.598-1.8 6.809-4.617 9-9 .846-4.766.487-8.062-1.75-12.375-3.78-4.41-6.684-6.383-12.562-6.937-5.662.48-8.42 2.844-12.063 7.062"/><path fill="#c6c6c6" d="M487 235h4l1-2h2c1.536 3.072 1.227 5.602 1 9-1.318 3.733-2.658 5.683-5.562 8.375-4.596 2.173-8.436 2.459-13.438 1.625-2.463-1.086-3.937-2.208-6-4v-1l5-1 .262-2.082c1.144-7.34 1.144-7.34 4.05-10.168 3.373-.941 4.596-.256 7.688 1.25"/><path fill="#e1e1e1" d="M583.066 694.586c3.248.695 4.805 1.897 6.934 4.414 1.123 3.862 1.406 6.007-.125 9.75-2.181 2.617-3.71 3.955-6.875 5.25-4.18 0-6.228-.346-9.437-3.062-2.023-3.802-2.523-6.723-1.563-10.938 3.036-4.554 5.784-5.794 11.066-5.414"/><path fill="#1f1f1f" d="m558 242 2 1c-4.637 19.66-15.992 35.784-29.105 50.71l-1.433 1.633a486 486 0 0 1-3.045 3.418C519.964 306.054 515.842 314.424 514 324l-3-2c2.008-13.166 8.735-22.13 17.732-31.417 12.097-12.553 21.779-28.62 26.514-45.458C556 243 556 243 558 242"/><path fill="#c6c6c6" d="M448 439c5.337 1.988 8.453 4.907 11 10 .57 4.675.438 8.123-1.687 12.375-3.012 3.419-5.025 5.315-9.645 5.941-4.338.202-7.135-.064-11.106-1.941-3.929-3.642-5.684-7.045-6-12.375.188-4.265 1.628-6.746 4.438-10 4.372-3.692 7.304-4.712 13-4m-12 7c-2.685 4.027-2.682 7.268-2 12 2.07 3.475 4.116 5.744 8 7 3.99.52 5.695.17 9.25-1.812 2.74-2.18 4.514-3.724 5.086-7.274.07-4.067.036-6.31-2.149-9.851-2.875-2.711-4.521-3.988-8.5-4.438-4.337.441-6.334 1.646-9.687 4.375"/><path fill="#cacaca" d="M565 206c6.281 3.801 12.3 7.85 18.125 12.313l1.721 1.31c4.028 3.125 4.028 3.125 5.154 5.377-.437 2.125-.437 2.125-1 4-3.345-1.262-6.347-2.694-9.39-4.566l-2.4-1.471-2.46-1.525-2.508-1.538c-6.091-3.75-6.091-3.75-7.242-4.9a75 75 0 0 1-.062-4.562l.027-2.504z"/><path fill="#c2c2c2" d="M387 427c5.337 1.988 8.453 4.907 11 10 .374 5.607.185 9.168-3 14-2.242 2.434-3.756 3.857-7.102 4.242-1.967.007-3.935-.109-5.898-.242v-2l1.863-.48c5.118-1.452 5.118-1.452 9.2-4.707 1.24-3.72 1.797-6.944.937-10.813-2.918-3.61-5.097-5.784-9.75-6.312-5.208.5-8.815 3.495-12.25 7.312-.375-2.187-.375-2.187 0-5 5.128-4.905 7.928-6.471 15-6"/><path fill="#1d1d1d" d="M391.125 425.625c4.52 2.458 7.557 5.739 9.875 10.375.557 5.957.522 10.952-3 16-2.882 2.97-5.749 5.51-10 6 1.115-2.839 2.044-4.034 4.5-5.937 2.84-2.343 3.614-3.52 4.5-7.063.454-4.762.486-7.01-1.625-11.312-3.592-4.065-6.537-5.527-11.937-6-3.244.294-5.527.9-8.438 2.312v-4c5.577-2.704 10.47-2.93 16.125-.375"/><path fill="#0d0d0d" d="M447 724c-1.47 4.346-4.564 5.752-8.434 7.707l-1.92.999a537 537 0 0 1-4.022 2.06 549 549 0 0 0-6.15 3.185q-1.952 1.005-3.908 2.006l-1.856.972c-1.533.768-3.12 1.429-4.71 2.071l-3-1c1.47-4.346 4.564-5.752 8.434-7.707l1.92-.999a537 537 0 0 1 4.022-2.06 549 549 0 0 0 6.15-3.185q1.952-1.005 3.908-2.006l1.856-.972c4.365-2.186 4.365-2.186 7.71-1.071M452 750h3c-.61 7.955-2.497 15.37-4.562 23.063l-.999 3.779Q448.23 781.423 447 786h-4c1.34-7.972 3.082-15.79 5.063-23.625l.814-3.293.783-3.121.707-2.819C451 751 451 751 452 750"/><path fill="#e1e1e1" d="M37 226c1.938 1.063 1.938 1.063 3 3 .365 3.41.614 5.88-1.062 8.938-3.058 1.676-5.529 1.427-8.938 1.062-1.937-1.062-1.937-1.062-3-3-.365-3.41-.614-5.88 1.063-8.937C31.12 225.386 33.59 225.635 37 226"/><path fill="#0d0d0d" d="M432 673c5.986.847 9.697 6.227 13.75 10.313l2.691 2.63 2.543 2.545 2.335 2.33C455 693 455 693 455 697c-5.986-.847-9.697-6.227-13.75-10.312l-2.691-2.631-2.543-2.545-2.335-2.33C432 677 432 677 432 673"/><path fill="#1c1c1c" d="m500 431 2 1c-1.672 5.957-4.011 11.289-6.875 16.75l-.992 1.932c-2.204 4.11-4.668 7.126-8.133 10.318l-2.187 2.313c-4.037 3.856-8.42 7.249-12.813 10.687l-2-1 1.836-1.293c12.385-9.241 21.54-22.289 26.226-37.055C498 432 498 432 500 431"/><path fill="#e1e1e1" d="M574 759c4.346-.395 6.32-.453 10 2 .395 4.346.453 6.32-2 10-4.346.395-6.32.453-10-2-.395-4.346-.453-6.32 2-10"/><path fill="#252525" d="m432 444 1 3-1 2c-.372 5.575-.225 9.217 3 14 4.306 3.784 9.513 3.691 15 4l1 3c-4.214 1.405-7.852 1.909-12.059.129-4.744-2.735-8.849-5.95-10.941-11.129-.605-3.776-.674-7.23 0-11 2-2.687 2-2.687 4-4"/><path fill="#0d0d0d" d="m712 0 3 1c-.607 3.831-1.748 6.85-3.504 10.3l-1.494 2.96-1.564 3.053-1.577 3.11A2024 2024 0 0 1 703 28h-4c1.996-6.803 4.806-12.845 8.188-19.062l1.404-2.624Q710.287 3.153 712 0"/><path fill="#2c2829" d="M410 422c6.251.43 12.042 1.014 18 3-1.147 3.44-1.845 3.878-4.812 5.75l-2.083 1.36c-2.105.89-2.105.89-4.195.777-2.502-1.162-3.275-2.46-4.66-4.824l-1.297-2.153C410 424 410 424 410 422"/><path fill="#c2c2c2" d="M493 403h11l-1 11-10-1z"/><path fill="#0d0d0d" d="M664 0c3 1 3 1 4.09 3.07l2.066 5.643 1.094 3.1 1.14 3.064c2.978 8.28 2.978 8.28 1.61 12.123-3-1-3-1-4.09-3.07-.327-.89-.652-1.782-.988-2.7l-1.078-2.943-1.094-3.1-1.14-3.064C662.631 3.843 662.631 3.843 664 0"/><path fill="#9f9f9f" d="M458 481c5.189 1.583 9.973 3.749 14.863 6.063l2.523 1.187q2.625 1.239 5.247 2.481c2.685 1.272 5.374 2.532 8.064 3.792l5.104 2.414 2.446 1.143c5.639 2.691 5.639 2.691 6.753 4.92-8.761-2.644-16.68-6.623-24.85-10.705-5.715-2.807-10.932-4.95-17.15-6.295-2.5-1.625-2.5-1.625-4-3z"/><path fill="#c4c4c4" d="m492 416 10 1-1 9c-3.47-.458-6.674-.891-10-2z"/><path fill="#232323" d="M414 386c3.38.565 4.682 1.485 6.813 4.125 1.486 1.658 1.486 1.658 3.187 2.875 3.54.078 3.54.078 7-1l3.438-.562L437 391v3q-2.618 1.048-5.25 2.063l-2.953 1.16c-2.95.82-4.058 1.068-6.797-.223-2.14-1.996-2.14-1.996-4.25-4.437l-2.14-2.434C414 388 414 388 414 386"/><path fill="#cacaca" d="M432 451h1l.688 3.188c1.123 3.984 3.15 6.124 6.312 8.812 3.794 1.897 8.044 1.217 12 0l-2 4c-4.982.354-8.854.542-13.437-1.625-3.586-3.323-5.377-6.283-5.813-11.187C431 452 431 452 432 451"/><path fill="#282828" d="M479 235c3.073.243 4.6.626 6.875 2.75 1.422 2.845 1.037 4.266.125 7.25-2.312.25-2.312.25-5 0-2.363-2.2-2.95-3.466-3.25-6.687C478 236 478 236 479 235"/><path fill="#0d0d0d" d="m721 56-1 3q-2.34.547-4.687 1.063l-2.637.597c-2.836.36-4.924.05-7.676-.66l1-3a348 348 0 0 1 4.688-1.062l2.636-.598c2.836-.36 4.924-.05 7.676.66"/><path fill="#1a1a1a" d="m430 165 2 1v2l-2.75 2.063c-4.02 3.162-5.511 7.242-7.25 11.937h-3c.298-5.96 3.103-9.72 7-14a87 87 0 0 1 4-3"/><path fill="#292929" d="m490 453 1 3-5 5-2.187 2.313c-4.037 3.856-8.42 7.249-12.813 10.687l-2-1 1.906-1.398c5.68-4.328 10.148-8.763 14.403-14.5C487 455 487 455 490 453"/><path fill="#c3c2c2" d="M448 439v1l-2.687.188c-5.166 1.266-7.446 4.511-10.313 8.812a128 128 0 0 0-1 7c-2.027-2.189-3-3.338-3-6.375 1.602-4.206 4.25-7.342 7.875-10 3.063-.9 5.956-.747 9.125-.625"/><path fill="#242424" d="M499 363h2c-.659 4.348-2.275 7.974-4 12-.691 2.779-.691 2.779-1 5l-3-2c.514-5.136 2.218-11.218 6-15"/><path fill="#c9c9c9" d="M329 97c-5.947 4.668-10.315 7.858-18 8 3.003-2.616 6.141-4.791 9.563-6.812l2.253-1.333c2.542-.995 3.665-.786 6.184.145"/><path fill="#1a1a1a" d="m561 229 2 1-3 13h-3q.426-2.658.875-5.312l.492-2.989C559 232 559 232 561 229"/><path fill="#222" d="m500 431 2 1q-.676 2.19-1.375 4.375l-.773 2.46C499 441 499 441 497 443h-2c.672-3.807 1.605-7.39 3-11z"/><path fill="#1e1e1e" d="M516 310c1.251 3.547.723 5.723-.437 9.25l-.872 2.703L514 324l-3-2q.387-2.16.813-4.312l.457-2.426c.806-2.496 1.75-3.586 3.73-5.262"/><path fill="#1d1d1d" d="M281 54c1.214 3.642.667 4.332-.937 7.688l-1.153 2.449L278 66h-3c.503-3.686.969-6.84 3-10z"/><path fill="#272727" d="m538 282 1 2c-4.282 4.453-8.858 8.572-14 12 1.566-4.037 4.442-6.47 7.625-9.25l1.563-1.39A716 716 0 0 1 538 282"/><path fill="#2c2c2c" d="m295 40 4 1c-1 3-1 3-3.066 4.168l-2.497 1.02-2.503 1.042L289 48c.75-2.437.75-2.437 2-5 2.125-.812 2.125-.812 4-1z"/><path fill="#b5b5b5" d="M458 481c3.775 1.09 6.47 1.908 9 5-1.625.688-1.625.688-4 1-3.25-1.437-3.25-1.437-6-3z"/><path fill="#181818" d="M495 244c.813 1.688.813 1.688 1 4-2.437 2.75-2.437 2.75-5 5l-3-1q1.18-1.724 2.375-3.437c.44-.639.882-1.277 1.336-1.934C493 245 493 245 495 244"/><path fill="#c4c4c4" d="m456 486 2 2h-14c4.47-2.98 6.84-3.207 12-2"/><path fill="#d8d8d8" d="m386 445 4 1-1 5-4-1z"/><path fill="#1a1a1a" d="m436 438 3 1c-4.43 5.785-4.43 5.785-7.312 6.875L430 446c1.443-3.366 3.333-5.51 6-8"/><path fill="#262626" d="m465 378-1 10-3-2c.256-2.343.593-4.678 1-7 2-1 2-1 3-1"/><path fill="#e9e9e9" d="m448 457 3 1v4l-5-1v-3z"/><path fill="#c7c7c7" d="m376 429 2 1a809 809 0 0 1-2.437 4l-1.372 2.25L373 438h-1c-.25-2.25-.25-2.25 0-5 2-2.312 2-2.312 4-4"/><path fill="#202020" d="m323 100 2 1c-1.098 2.993-1.677 3.846-4.625 5.25L318 107c1.25-3.653 1.671-4.78 5-7"/><path fill="#adadad" d="M448 439v1l-2.875.313c-3.416.372-3.416.372-5.125 3.687l-3-1c3.343-4.28 5.709-4.407 11-4"/><path fill="#252525" d="M516 310c.625 1.875.625 1.875 1 4-2 2-2 2-5 3 .602-2.02 1.273-4.021 2-6z"/></svg>