<svg xmlns="http://www.w3.org/2000/svg" width="819" height="787" style="shape-rendering:geometricPrecision;text-rendering:geometricPrecision;image-rendering:optimizeQuality;fill-rule:evenodd;clip-rule:evenodd"><path fill="#0d0d0d" d="M663.5-.5h2q4.635 12.15 9 24.5-.17 1.92-2 2.5-6.571-11.43-10-24.5.365-1.353 1-2.5" style="opacity:.78"/><path fill="#0d0d0d" d="M711.5-.5h2q1.368 1.858.5 4a224 224 0 0 1-13.5 25q-1.5-.5-2-2a504 504 0 0 1 13-27" style="opacity:.798"/><path fill="#131313" d="M475.5 109.5q41.02 5.885 69.5 36a265 265 0 0 1 13.5 24.5q7.523-1.401 15 1a224 224 0 0 0 14 11.5 2354 2354 0 0 1 44.5 38q10.527 22.444-13.5 28a30.1 30.1 0 0 1-9-2.5 441 441 0 0 0-22-13.5 6943 6943 0 0 0-21-13.5 4.93 4.93 0 0 0-3-.5q-4.66 48.751-40.5 82-10.519 15.294-12.5 34 2.903 3.704 4 8.5a240 240 0 0 0-2.5 13.5 6.98 6.98 0 0 1-2.5 3.5q15.974 22.196 23 48.5 11.57 80.578-55 126.5-63.062 34.962-126 0-71.622-49.828-52.5-135.5 13.776-45.764 54.5-70.5-1.65-8.822 1.5-17.5 1.645-4.147 6-5a163.5 163.5 0 0 0 7.5-37 722 722 0 0 1-8.5-45q-4.567-48.249 24-87 9.144-9.903 19.5-18h1q1 0 1-1 1.61-1.127.5-3a94 94 0 0 0-7-11Q369.86 79.54 334.5 64a48.7 48.7 0 0 0-13-3.5q-13.836-1.665-25 6.5-4.339 4.93-5 11.5 2.632 13.516 12 23.5 2.575 2.338 6 2.5.626.936 2 1 9.725-3.105 17-10 4.996-2.798 10-.5 9.119 18.83-9 30-12.717 5.952-26 1.5-17.703-10.479-25.5-30-6.783-17.03-3-35 5.439-14.684 19.5-21 22.026-6.452 44 1.5 24.92 10.461 46 27a974 974 0 0 0 33 26q5.816 6.369 9 14.5l2 1q23.418-5.13 47-1m-125-57q3.261.375 5 3-3.261-.375-5-3m5 3a97.6 97.6 0 0 1 18 10.5 1337 1337 0 0 1 39 30q7.827 6.569 10 16.5-2.188-.1-4 1-2.742-11.731-12-19.5a1176 1176 0 0 0-51-38.5m-59 6q-11.091 9.53-7.5 24 3.852 11.217 11.5 20-5.748-1.978-9.5-7-9.32-11.456-7-26 3.711-8.466 12.5-11m27 61a45.8 45.8 0 0 0 8.5-11 39 39 0 0 1 1.5-7 12 12 0 0 1-1-6q2.661-2.072 4.5 1 3.378 17.223-13.5 23m132-11q-43.252 12.489-59.5 55-16.428 44.799-1 90 3.75 28.498-7.5 55a108 108 0 0 1-23-4.5 139.5 139.5 0 0 0 8-37.5 442 442 0 0 0-7.5-37q-8.637-54.546 26-97 26.911-25.728 64.5-24m133 77a684 684 0 0 1 33 29q-5.54-.471-7 5a15 15 0 0 0 3 3.5 6.98 6.98 0 0 0-3.5 2.5q-6.215-4.756-7.5 3-.626 8.116 7 7.5 2.09-1.756 2.5-4.5 6.187 6.745 9.5-1.5-1.394-3.896-5-6 5.463.432 7.5-4.5 8.218 12.025-3.5 20.5-6 3-12 0a586 586 0 0 1-24-14.5q-.201-2.687 1-5 18.912.8 11.5-17a229 229 0 0 0-11.5-8 45 45 0 0 0-1-10m-202 127a249 249 0 0 0-5 17l-23-4q1.657-9.237 6.5-17a174 174 0 0 0 21.5 4m-30 16a27.1 27.1 0 0 0 10 2q-4.197 9.405-8.5 19a60.5 60.5 0 0 0-4.5 18q-4.224-.066-7-3a1109 1109 0 0 1 10-36m23 5q-12.238 34.955-13 72-6.618-2.877-8.5-10-6.072-34.711 13.5-64a87 87 0 0 0 8 2m-29-1q.814.09 1 1a419 419 0 0 0-9 30.5 289 289 0 0 1-22-3 173.3 173.3 0 0 1 30-28.5m93 152h14a465 465 0 0 0 46 19.5q-48.03 52.676-118 38-67.171-19.671-84.5-87.5-9.452-47.294 16-88 11.863-1.633 23.5 2 .869 5.394 0 11a93.4 93.4 0 0 0-21-.5q-2 1.5 0 3 9.576.309 19 1.5.852 4.368 0 9a50.5 50.5 0 0 0-10 .5q-2 1.5 0 3 4.473.747 9 .5-.78 17.785 5 34.5a677 677 0 0 1-33.5 28.5q-1.137 3.404.5 6.5 28.52-.001 57-1 34.095 26.9 77 19.5m-98-115a31.7 31.7 0 0 1 6 2q1.736 4.926.5 10l-7-2a30.3 30.3 0 0 1 .5-10m-2 14a100 100 0 0 0 8 1.5 110 110 0 0 1 2 6.5 31.1 31.1 0 0 1-11 1q.306-4.527 1-9m23 26a54.7 54.7 0 0 0 3 17q-10.43 18.96 9 28.5 3.465.745 7 .5 17.822 19.77 44 26-49.37 1.316-78-39-11.15-21.61-10-46h13q1.884 10.381 12 13m163 10q4.206 44.154-22.5 80a482 482 0 0 1-13.5-26q29.19-19.338 36-54m-158 13q-.258 1.488 1 2-2.824 11.847 9 15v2q-15.048-4.602-10-19m-14 28q-22.227 2.193-45 1.5a50.5 50.5 0 0 1 10-.5 469 469 0 0 1 35-1" style="opacity:.882"/><path fill="#cdcdcd" d="M294.5 40.5q-14.061 6.316-19.5 21-3.783 17.97 3 35 7.797 19.521 25.5 30-15.061-2.311-23.5-15-18.643-24.047-10-53 7.532-15.393 24.5-18" style="opacity:.879"/><path fill="#cfcfcf" d="M336.5 45.5q.512 1.258 2 1 .512 1.258 2 1 .512 1.258 2 1 .512 1.258 2 1 .512 1.258 2 1 .512 1.258 2 1 .512 1.258 2 1 1.739 2.625 5 3a1176 1176 0 0 1 51 38.5q9.258 7.769 12 19.5-4.389 2.052-9 2.5a57.9 57.9 0 0 0-13-18 376 376 0 0 0-54-34 257 257 0 0 0-17-6 90.5 90.5 0 0 0-19 0q-5.413 1.052-10 3.5-8.789 2.534-12.5 11-2.32 14.544 7 26 3.752 5.022 9.5 7h1q5.42 3.427 12 2.5l19-9.5a12 12 0 0 0 1 6 39 39 0 0 0-1.5 7 45.8 45.8 0 0 1-8.5 11q-1 0-1 1-14.883 4.473-27-5.5-21.362-21.975-18.5-52.5 8.691-25.383 36-25 12.24.297 23.5 5m-40 16q-11.091 9.53-7.5 24 3.852 11.217 11.5 20-5.748-1.978-9.5-7-9.32-11.456-7-26 3.711-8.466 12.5-11" style="opacity:.962"/><path fill="#0d0d0d" d="M715.5 54.5a8.44 8.44 0 0 1 4 .5q2 1.5 0 3-5.967 1.41-12 2.5-4.027-.312-2-3.5a135 135 0 0 0 10-2.5" style="opacity:.777"/><path fill="#c8c8c8" d="M321.5 60.5a48.7 48.7 0 0 1 13 3.5q35.36 15.54 64.5 40.5a94 94 0 0 1 7 11q1.11 1.873-.5 3-1 0-1 1h-1q-1.763.329-3-1-4.873-13.117-16-21.5a279.3 279.3 0 0 0-63-36.5" style="opacity:.817"/><path fill="#c2c2c2" d="M328.5 95.5q-7.275 6.895-17 10-1.374-.064-2-1 7.46-4.232 15-8.5a8.44 8.44 0 0 1 4-.5" style="opacity:.737"/><path fill="#d0d0d0" d="M475.5 109.5q47.896-1.947 86 26.5 19.802 19.345 26 46.5a224 224 0 0 1-14-11.5q-7.477-2.401-15-1a265 265 0 0 0-13.5-24.5q-28.48-30.115-69.5-36" style="opacity:.952"/><path fill="#d2d2d2" d="M455.5 111.5q39.08.52 72 21.5 29.927 24.595 33.5 63.5 3.03 48.402-26 87a268 268 0 0 0-18 21q-8.376 14.376-8.5 31a3452 3452 0 0 1-120-22.5q-.834-.574-1-1.5 11.25-26.502 7.5-55-15.428-45.201 1-90 16.248-42.511 59.5-55" style="opacity:.996"/><path fill="#1c1c1c" d="M433.5 162.5q9.637-.555 19 1.5a20.23 20.23 0 0 1 7.5 7.5 2782 2782 0 0 1 36 61q4.236 19.007-15 23-6.455-.546-11.5-4.5a6486 6486 0 0 1-49.5-58.5q-5.979-20.555 13.5-30" style="opacity:1"/><path fill="#ccc" d="M435.5 165.5a51.3 51.3 0 0 1 16 1.5q4.25 2.25 6.5 6.5a4460 4460 0 0 0 32.5 54.5q-3.788-1.356-8-1-2.567 1.7-1.5 4.5 4.261 4.663 10 3 .917-5.658 3 0 2.011 15.99-14 18-6.286-.789-10.5-5.5a20.4 20.4 0 0 0 5.5-1.5q1-4.5 0-9-3-2-6 0l-1 8-46-54q-3.43-13.442 7.5-22.5a219 219 0 0 0 6-2.5" style="opacity:1"/><path fill="#e1e1e1" d="M55.5 170.5q25.012.531 16.5 24-9.63 11.563-22.5 3.5-7.053-7.383-4.5-17.5 3.159-7.414 10.5-10" style="opacity:.973"/><path fill="#cdcdcd" d="M588.5 188.5a45 45 0 0 1 1 10 154 154 0 0 0-14-9.5q-7.268-1.745-11.5 4.5a1091 1091 0 0 0-4.5-18.5q.608-1.418 2-2 4.5-1 9 0a134 134 0 0 1 18 15.5" style="opacity:.991"/><path fill="#111" d="M444.5 186.5q5.712-.505 11 1.5l16.5 22.5q5.53 13.447-8.5 16-4.093.308-7-2.5a304 304 0 0 1-16.5-23.5q-2.536-8.834 4.5-14" style="opacity:1"/><path fill="#e1e1e1" d="M142.5 196.5q37.61-4.091 50.5 31 6.503 38.249-29.5 52.5-40.158 6.815-53.5-31.5-4.724-39.456 32.5-52" style="opacity:.99"/><path fill="#c9c9c9" d="M589.5 223.5q-1.201 2.313-1 5a396 396 0 0 1-23-13q-1.736-4.927-.5-10a621 621 0 0 0 24.5 18" style="opacity:.987"/><path fill="#d0d0d0" d="M587.5 232.5q-8.915 40.845-39.5 69-12.046 19.204-12 42a1034 1034 0 0 1-3.5 65q-7.026-26.304-23-48.5a6.98 6.98 0 0 0 2.5-3.5 240 240 0 0 1 2.5-13.5q-1.097-4.796-4-8.5 1.981-18.706 12.5-34 35.84-33.249 40.5-82a4.93 4.93 0 0 1 3 .5 6943 6943 0 0 1 21 13.5" style="opacity:.978"/><path fill="#e1e1e1" d="M29.5 225.5q15.476-.267 7 12.5-15.597.707-7-12.5" style="opacity:.938"/><path fill="#acacac" d="M483.5 230.5q2.645-1.818 5 1l-.5 1a39 39 0 0 0-4.5-2" style="opacity:1"/><path fill="#191919" d="M478.5 234.5q9.077.809 7 9.5-7.251 1.591-8-6a11 11 0 0 1 1-3.5" style="opacity:1"/><path fill="#a6a6a6" d="M480.5 237.5q3.342 1.233 2 4-1.808-1.615-2-4" style="opacity:1"/><path fill="#cfcfcf" d="M386.5 315.5a7719 7719 0 0 0 121 23 141 141 0 0 0-1 19 2302 2302 0 0 1-125-25 249 249 0 0 1 5-17" style="opacity:.997"/><path fill="#d0d0d0" d="M379.5 336.5q45.995 8.583 92 17.5.686.621 1 1.5a125 125 0 0 0-13.5 34 113 113 0 0 0-.5 15l-6 1v3l6-1v4a18.5 18.5 0 0 0-6 .5 3.65 3.65 0 0 0-1 1.5 16.9 16.9 0 0 0 8 1v4h-9v3q5.025-.247 10 .5 11.933 20.337 29.5 4.5 4.233 1.163 8.5 2-7.173 27.882-30 45-16.63 9.127-35.5 12a11 11 0 0 1-3.5-1q-26.178-6.23-44-26 18.82-6.053 13.5-25-12.697-17.35-29.5-4a54.7 54.7 0 0 1-3-17q9.848.827 17-6a46 46 0 0 1 7 3q1.5-.5 2-2a133 133 0 0 1-8-4.5 11.4 11.4 0 0 1 2-2.5 19 19 0 0 1 5 3q1.5-.5 2-2-4.764-2.018-7-6.5l1-2.5 6 4 1-1.5q-2.563-3.065-6-5.5-4.618-24.35 7-46-1.726-1.846-3.5 0a47.4 47.4 0 0 0-5 12 266 266 0 0 0-3 39q-1.809 16.623-17.5 14 .762-37.045 13-72" style="opacity:.994"/><path fill="#0d0d0d" d="M758.5 338.5q5.9-.133 8.5 5 .75 77.999.5 156 16.008-.25 32 .5 9.707 6.418 0 13-15.992.75-32 .5.25 24.505-.5 49-3.037 6.967-10.5 4.5l-2.5-2.5q-.75-25.495-.5-51-53.002.25-106-.5-7.764-3.776-3.5-11.5l106-154q3.586-5.33 8.5-9m-6 30a4290 4290 0 0 1 1 131q-45.01.5-90-1 44.577-65.053 89-130" style="opacity:.961"/><path fill="#0d0d0d" d="M133.5 338.5q5.344.188 7.5 5 .75 77.999.5 156 16.008-.25 32 .5 10 6.5 0 13-15.992.75-32 .5.25 25.005-.5 50-3.77 5.567-10.5 3.5l-2.5-2.5q-.75-25.495-.5-51-53.002.25-106-.5-4.466-1.718-5-6.5.74-4.478 3.5-8a25438 25438 0 0 0 108.5-157 31.6 31.6 0 0 1 5-3m-7 30a4290 4290 0 0 1 1 131q-45.01.5-90-1a7039 7039 0 0 0 89-130" style="opacity:.962"/><path fill="#797979" d="M510.5 340.5q1.59 5.808-.5 12-1.144-6.13.5-12" style="opacity:1"/><path fill="#cfcfcf" d="M475.5 354.5a344 344 0 0 0 31 6 764 764 0 0 1-2 39h-11q-2.276-18.913 7-35.5-.525-1.886-2-1-4.997 6.983-6.5 15.5a2199 2199 0 0 0-3 39q-3.903 15.934-19.5 11.5-4.4-3.397-6.5-8.5-3-17.5 0-35a255 255 0 0 1 12.5-31" style="opacity:1"/><path fill="#cbcbcb" d="M509.5 366.5q12.516 16.537 18 37l-2 1a105 105 0 0 0-17-4l-1-3.5a1960 1960 0 0 0 2-30.5" style="opacity:1"/><path fill="#1e1e1e" d="M413.5 385.5q6.739 2.715 11 9a42.4 42.4 0 0 1 12-4q.329 1.763-1 3a235 235 0 0 1-11.5 4 60 60 0 0 1-10.5-12" style="opacity:1"/><path fill="#7a7a7a" d="M503.5 403.5h-10v9q-1.469-4.687-1-10 5.807-.473 11 1" style="opacity:1"/><path fill="#d0d0d0" d="m503.5 403.5-1 10a105 105 0 0 1-9-1v-9z" style="opacity:1"/><path fill="#cfcfcf" d="M529.5 422.5q-6.81 34.662-36 54-6.596-6.691-7.5-16 10.302-13.352 15.5-29.5 5.164 1.429 10.5 3.5l1.5-1a92 92 0 0 0-11-7 35.2 35.2 0 0 0 2-8 77.9 77.9 0 0 1 21 7l1-1.5q-9.412-6.699-21-8.5a73.3 73.3 0 0 1 1-12 131 131 0 0 1 21 4.5q2.658 6.946 2 14.5" style="opacity:.976"/><path fill="#c4c4c4" d="m491.5 415.5 10 1a41.7 41.7 0 0 0-1 9q-4.75.15-9-2-.673-3.815 0-8" style="opacity:1"/><path fill="#282425" d="M409.5 421.5a87 87 0 0 1 18 4q-4.575 4.42-10.5 7-5.216-4.409-7.5-11" style="opacity:1"/><path fill="#161616" d="M385.5 458.5a25 25 0 0 1-7-.5q-19.43-9.54-9-28.5 16.803-13.35 29.5 4 5.32 18.947-13.5 25m-14-23q-.258 1.488 1 2-2.824 11.847 9 15v2q-15.048-4.602-10-19" style="opacity:.916"/><path fill="#c2c2c2" d="M381.5 454.5v-2q4.093.494 7-2 5.997-2.962 6-10-1.724-12.125-14-10.5-5.734 1.986-8 7.5-1.258-.512-1-2 2.343-8.57 11.5-9 19.82 4.134 12 23-5.34 6.858-13.5 5" style="opacity:.974"/><path fill="#262223" d="M388.5 450.5q-2.907 2.494-7 2-11.824-3.153-9-15 2.266-5.514 8-7.5 12.276-1.625 14 10.5-.003 7.038-6 10" style="opacity:.99"/><path fill="#1c1c1c" d="M440.5 435.5q26.817 1.555 18.5 27-13.602 15.166-28 1-10.13-19.212 9.5-28" style="opacity:1"/><path fill="#a5a5a5" d="M351.5 445.5q2.658 7.055 8 12.5l-2 1a934 934 0 0 1-40 1l26-22q1.5-1 3 0 1.977 4.236 5 7.5" style="opacity:1"/><path fill="#c2c1c2" d="M440.5 438.5q23.496 1.008 15.5 23-9.162 10.152-20.5 2.5-11.83-15.629 5-25.5" style="opacity:1"/><path fill="#282425" d="M441.5 441.5q16.311.055 13.5 16-10.5 14-21 0-2.595-11.11 7.5-16" style="opacity:1"/><path fill="#dcdbdb" d="M388.5 450.5q-5.775-.301-3-5.5 5.945-.176 3 5.5" style="opacity:1"/><path fill="#f4f4f4" d="M445.5 457.5h5v4q-5.174 1.115-5-4" style="opacity:1"/><path fill="#8e8e8e" d="M357.5 463.5a469 469 0 0 0-35 1q16.178-2.491 33-3l7 .5q-2.107 1.904-5 1.5" style="opacity:.469"/><path fill="#a6a6a6" d="M468.5 473.5q7.329-4.059 13.5-10a937 937 0 0 1 17.5 32l-1 1-36-18a325 325 0 0 0 6-5" style="opacity:1"/><path fill="#c5c5c5" d="M457.5 487.5h-14q7.115-5.552 14 0" style="opacity:.701"/><path fill="#a8a8a8" d="M500.5 502.5q-.512-1.258-2-1-2.145-1.556-5-2-.512-1.258-2-1-.512-1.258-2-1-.512-1.258-2-1-.512-1.258-2-1-.512-1.258-2-1-.512-1.258-2-1-1.063-1.356-3-1-.512-1.258-2-1-.512-1.258-2-1-.512-1.258-2-1-.512-1.258-2-1-.512-1.258-2-1-6.343-.904-12-4.5a11.4 11.4 0 0 1 2-2.5 1342 1342 0 0 1 44 21.5 2.43 2.43 0 0 1-2 .5" style="opacity:.625"/><path fill="#0d0d0d" d="M431.5 672.5a4.93 4.93 0 0 1 3 .5l19.5 19.5a8.4 8.4 0 0 1 .5 4 4.93 4.93 0 0 1-3-.5L432 676.5a8.4 8.4 0 0 1-.5-4" style="opacity:.776"/><path fill="#e1e1e1" d="M501.5 674.5q42.261-3.715 48 38-4.27 40.519-45 38.5-36.091-9.425-31.5-46.5 5.863-23.11 28.5-30" style="opacity:.988"/><path fill="#e1e1e1" d="M576.5 694.5q13.488-2.236 13.5 11-6.028 12.847-17 4-4.19-9.138 3.5-15" style="opacity:.96"/><path fill="#0d0d0d" d="M443.5 722.5q5.19 1.14 1 4.5a806 806 0 0 1-30 15.5q-3.869-2.082 0-4.5 14.592-7.793 29-15.5" style="opacity:.784"/><path fill="#0d0d0d" d="M445.5 786.5h-2a11 11 0 0 1-1-2.5 2461 2461 0 0 0 8.5-33.5q1.517-1.255 3.5-1a299 299 0 0 1-9 37" style="opacity:.802"/><path fill="#e1e1e1" d="M573.5 758.5q14.982-1.749 8 11.5-15.108 2.202-8-11.5" style="opacity:.949"/></svg>