<svg xmlns="http://www.w3.org/2000/svg" width="952" height="761" style="shape-rendering:geometricPrecision;text-rendering:geometricPrecision;image-rendering:optimizeQuality;fill-rule:evenodd;clip-rule:evenodd"><path fill="#e1e1e1" d="M804.5-.5h6q21.423 7.986 11.5 29-14.453 13.898-29 0-9.895-21.024 11.5-29" style="opacity:.975"/><path fill="#e1e1e1" d="M684.5 3.5q20.829-.315 13.5 19-12.372 9.38-20-4-2.101-9.978 6.5-15" style="opacity:.957"/><path fill="#0d0d0d" d="M80.5 43.5a109.3 109.3 0 0 1 21 12q1.393 1.783 1 4-2.712.013-5-1.5l-16-10q-1.32-2.034-1-4.5" style="opacity:.769"/><path fill="#e1e1e1" d="M125.5 56.5q19.242 2.49 13.5 21-11.015 13.388-23 1-7.109-16.27 9.5-22" style="opacity:.967"/><path fill="#e1e1e1" d="M749.5 58.5q42.467 1.712 40.5 44-9.569 32.55-43.5 29.5-25.087-6.087-29.5-31.5-.755-34.463 32.5-42" style="opacity:.987"/><path fill="#0d0d0d" d="M64.5 65.5h36v3a390 390 0 0 1-37 1q-.1-2.188 1-4" style="opacity:.83"/><path fill="#0d0d0d" d="M102.5 81.5h4q.255 1.983-1 3.5a686 686 0 0 1-26 17.5q-2.985-1.444-1-4a6984 6984 0 0 0 24-17" style="opacity:.783"/><path fill="#e1e1e1" d="M144.5 83.5q12.234-1.018 10.5 11-7.995 10.216-15-1-1.056-6.612 4.5-10" style="opacity:.948"/><path fill="#121212" d="M474.5 549.5q-2.404 19.657-19 30.5l-12 7q9.143 5.798 20 6.5 22.905 5.663 46 .5a4714 4714 0 0 1 73-26q85.536-26.006 175-26 9.437-.11 18-4 2.956-6.122-.5-12.5a135.7 135.7 0 0 0-14-24q-6.216-11.837 5.5-18.5a98.5 98.5 0 0 1 21-6 401 401 0 0 1 46-4q-.917-12.833 12-12.5 2.842-4.175 8-4.5a156.4 156.4 0 0 1 25 0q7.704.71 10 8l14 1q2 3 0 6-6.804 2.069-14 1.5v6a85 85 0 0 1 13 .5q4 3.5 0 7-7.053.258-14 1.5-1.201 3.95-5 5.5a256 256 0 0 1-32 0 11.5 11.5 0 0 1-4.5-3.5q-13.294 3.965-11.5-10a267.6 267.6 0 0 0-62 8.5q-6.164 1.637-6.5 7.5a150.4 150.4 0 0 1 17 32q3.99 12.738-7.5 18.5a84.6 84.6 0 0 1-19 3q-122.26-.182-234 49-33.979 10.48-68 .5a132 132 0 0 1-18.5-8q-26.61 11.829-55.5 16.5a548.5 548.5 0 0 1-117 7q-14.841-1.361-27-9.5-10.712-11.597 2-21.5 17.39-8.973 37-10 43.989-3.642 88-7 15.869-1.167 31-4.5a2.43 2.43 0 0 0 2-.5l-11-13a614 614 0 0 0-73 2 30 30 0 0 1-6 7 143 143 0 0 1-14 7.5 278 278 0 0 1-40 6.5 12989 12989 0 0 0-108 9.5q-82.251-2.724-120.5-75-20.7-41.821-24.5-88v-36q2.624-28.327 13.5-55 27.87-54.028 77.5-18.5 17.364 4.46 34-3a968 968 0 0 0 37-19 33.6 33.6 0 0 1 10-2.5q21.3-67.793 84-101a50.9 50.9 0 0 1 10-17.5l102-44q17.53-5.873 30 7.5 30.786-2.968 42.5 26 9.338 27.696 2 56a185 185 0 0 1-10.5 32.5q20.988 21.246 51 26 33.302 3.946 66-3.5a199.8 199.8 0 0 1 6-51h4a164.2 164.2 0 0 0-5.5 51q6.678-.962 13.5-2a279 279 0 0 1 7.5-32q1.517-1.255 3.5-1a2248 2248 0 0 0-7 32.5 67.3 67.3 0 0 0 13 1.5l5-18q2.77-.417 4 2a198 198 0 0 0-5 15 240 240 0 0 1 36.5 9 2607 2607 0 0 0 35-59q5.619-5.84 11 0a6694 6694 0 0 1 10 98q37.088 48.534 13.5 105a2238 2238 0 0 0 54 35.5q4.624 9.219-6 9a11413 11413 0 0 0-111 10 188.5 188.5 0 0 1-39 11 40.1 40.1 0 0 1 4 14.5q-1.983.255-3.5-1a57.2 57.2 0 0 1-3.5-13 92 92 0 0 0-12.5 2 139.6 139.6 0 0 0 5.5 28h-4a211.5 211.5 0 0 1-6-28q-7.473.83-15 1-.282 21.271 6 41.5-1.75 4.75-4.5.5a165 165 0 0 1-5.5-42 1459 1459 0 0 1-188 3q1.657 9.237 6.5 17a455 455 0 0 1 64.5 7.5q25.302 5.823 37.5 28.5a19 19 0 0 1 1.5 8m-87-388q2.438-4.132-1-7.5-6.252-2.751-13-2-4.638 6.177 2 10a71 71 0 0 0 9 1.5q-37.945 24.48-76 49-16.752.847-32 7-23.399-12.975-15.5-39 1.865-7.368 7.5-12.5a4586 4586 0 0 1 97-41q-5.349 5.276-4.5 12.5 4.5 6 9 0a737 737 0 0 0 4.5-8.5q-.96-4.959-6-6 25.34-7.199 30 19-1.004 11.72-11 17.5m-19-32q1.184.424 2 1.5a96 96 0 0 1-5.5 7.5q-.19-5.124 3.5-9m32 5q18.138-.805 28.5 14 12.576 23.594 8 50-2.895 20.427-11.5 39a553 553 0 0 1-34-34.5 145 145 0 0 0-29-20 599 599 0 0 0 33.5-22.5q9.125-11.869 4.5-26m-19 5q2.6.762 1 2.5a61 61 0 0 0-6.5 3.5l-1.5-1.5a786 786 0 0 0 7-4.5m-6 16q4.88.094 9 2.5-.912 1.305-2.5 1.5a15.9 15.9 0 0 0-6.5-1zm40 104q-27.95-34.182-71-44.5a113.5 113.5 0 0 0-28-2.5 3021 3021 0 0 0 41.5-27 117.1 117.1 0 0 1 28.5 18.5 967 967 0 0 1 36.5 37.5q-1.651 9.812-7.5 18m-145-39q-75.163 36.207-89.5 119-8.068 62.069 37.5 104-40.423-26.769-49.5-75-13.548-96.363 57.5-162.5a207.6 207.6 0 0 1 28-18.5q-1.14 21.216 16 33m400 80a7301 7301 0 0 1-7-85q2.115-1.992 3.5 1a7351 7351 0 0 1 8 89 31.5 31.5 0 0 1-4.5-5m-205-7q-25.562-9.269-44-29l8.5-17 23 19q9.498 11.995 12.5 27m-7-27q22.68 8.635 47 8a138 138 0 0 1 3 25 184.4 184.4 0 0 1-39-4 36.3 36.3 0 0 0-2.5-13 181 181 0 0 0-8.5-16m108 27h-11a479 479 0 0 1-3-25q6.899.45 13.5-1a136 136 0 0 0 .5 26m12 0h-9q-.26-13.043 1-26 5.025-.247 10 .5a4.46 4.46 0 0 1 2 1.5 150 150 0 0 0-4 24m100 138q30.607-61.562-20-108 1.813-36.937-35-35.5-10.185 1.978-17 9.5-11.85-2.62-24-3a143.7 143.7 0 0 1 4-25q73.374 4.156 105.5 70 16.917 44.92-8 86a33 33 0 0 1-5.5 6m-127-137a467 467 0 0 1-39 4q-.38-12.15-3-24a249 249 0 0 0 39-5q1.39 12.513 3 25m-470 186q7.173 70.926 78 80.5a590 590 0 0 0 71 4.5q-42.75 4.25-86 8-83.944-3.586-118.5-80-30.984-71.334-13-147 5.817-23.399 23.5-39.5 15.62-10.802 33-3a176 176 0 0 0 20 11q20.121 4.242 39-4 19.39-9.57 38.5-19.5l1.5 1a164 164 0 0 0-5.5 26 684 684 0 0 0-.5 37q-41.606 9.852-64.5 46-22.737 36.449-16.5 79m573-160a11.74 11.74 0 0 0-5-3q-1.855-18.606-20.5-21-6.676.976-12.5 4-2.855-.444-5-2 19.407-14.718 37.5 2 6.937 9.032 5.5 20m-489 51q-43.012 9.773-66.5 47-8.439 13.87-13.5 29 8.357-51.995 53-79.5 11.771-6.507 25-8.5zm6 21q22.5 51.245 75 71.5a286 286 0 0 0 48 15q-5.585 11.763-3 24.5a6.8 6.8 0 0 1-3 1.5 3768 3768 0 0 0-99.5 2.5q-49.119-1.868-52.5-51 3.991-28.734 25-48.5l12-7a22.7 22.7 0 0 1-2-8.5m568 65a1954 1954 0 0 0-51-32q1.704-6.152 7-2.5l50 33a20.1 20.1 0 0 1-6 1.5m-61-26q.11 2.29-2 3-.11-2.29 2-3m-460 12q2.29-.11 3 2-2.29.11-3-2m635 16q14.16-.668 28 1.5a6.98 6.98 0 0 1 2.5 3.5q1.397 11.658-1 23l-1.5 1.5q-15.57 1.213-31-.5a12.4 12.4 0 0 1-2.5-4 100.2 100.2 0 0 1 0-20q1.66-3.92 5.5-5m-13 5q1.494-.129 2.5 1 1 10.5 0 21-1.67 1.817-3.5 0-2.357-11.374 1-22m-540 16a805 805 0 0 0 56 7.5 257 257 0 0 0 6 17q-31.993-.02-64-.5-2.34-12.267 2-24m-163 1q15.402 30.23 50 30a2997 2997 0 0 1 105-2.5 220 220 0 0 0 7 12.5 4139 4139 0 0 0-111 3q-42.557-1.575-51-43m232 41a1325 1325 0 0 0-61-1 146 146 0 0 0-8-12.5 1012 1012 0 0 1 64 .5 51.3 51.3 0 0 0 5 13m99 20q-13.252-10.371-30-13.5a454 454 0 0 0-61-6.5 215 215 0 0 1-6-12.5q37.13.071 73 10 16.183 6.938 24 22.5m-57 20q8.243-.727 15.5 3 1 2 0 4a21.9 21.9 0 0 1-6.5 4 67.3 67.3 0 0 1-12-10q1.237-1.329 3-1m0 14a296 296 0 0 1-35 5.5 5780 5780 0 0 0-107 9q-16.291 1.845-30 10.5-7.307-6.134-1-13.5 13.316-8.272 29-10a3545 3545 0 0 1 95-8q19.065-2.011 38-4a161 161 0 0 0 11 10.5" style="opacity:.897"/><path fill="#0d0d0d" d="M380.5 135.5q8.48.666 5.5 9a70 70 0 0 1-10 5q-7.366-2.226-4-9a102 102 0 0 0 8.5-5m1 4a786 786 0 0 1-7 4.5l1.5 1.5a61 61 0 0 1 6.5-3.5q1.6-1.738-1-2.5" style="opacity:.814"/><path fill="#0d0d0d" d="M333.5 150.5q16.905-.584 19 16a25.6 25.6 0 0 1-3.5 10 212 212 0 0 1-46 23q-17.205-2.707-15-20a23.2 23.2 0 0 1 5.5-8.5 1135 1135 0 0 1 40-20.5" style="opacity:.969"/><path fill="#cacaca" d="M308.5 212.5a192 192 0 0 1-16 10.5q-8.95 1.881-16-3.5 15.248-6.153 32-7" style="opacity:.899"/><path fill="#d2d2d2" d="M316.5 212.5q14.158-.49 28 2.5 43.05 10.318 71 44.5a249.2 249.2 0 0 1-28.5 48q-5.04 10.107-11.5 19a3353 3353 0 0 1-73-34.5q-8.131-1.259-16 1-15.788 7.788-23.5 23.5-4.143 20.707 10.5 35.5a8075 8075 0 0 0 85 25 199.4 199.4 0 0 0-6.5 36.5q-34.308 26.299-58 62-31.985-6.41-60.5-22-2.198-1.856-5-3-.513-1.258-2-1 0-1-1-1 0-1-1-1-.513-1.258-2-1 0-1-1-1-.71-2.11-3-2-45.568-41.931-37.5-104 14.337-82.793 89.5-119 10.06 6.605 22 5.5a113 113 0 0 0 21-13 4.93 4.93 0 0 1 3-.5" style="opacity:.994"/><path fill="#a4a4a4" d="M663.5 215.5a7301 7301 0 0 0 7 85q-4.032-.786-4.5-5a1459 1459 0 0 0-6.5-72q-1.081-5.778 4-8" style="opacity:.889"/><path fill="#a6a6a6" d="M655.5 225.5q2.605 3.762 2.5 9a1168 1168 0 0 1 4.5 60q-15.808-13.161-35-21a1018 1018 0 0 0 28-48" style="opacity:1"/><path fill="#d1d1d1" d="M421.5 264.5q18.438 19.731 44 29 2.388 14.28-6.5 26l-12 14q-10.509 22.479 13.5 28l-6 2q-25.403 3.697-48 16l-1-.5q17.991-18.939 0-38a372 372 0 0 1-23-12 482 482 0 0 0 9.5-18.5 1735 1735 0 0 0 29.5-46" style="opacity:.994"/><path fill="#0d0d0d" d="M898.5 270.5h3a238 238 0 0 1 2 25l-6-1a224 224 0 0 0 3 17.5q-.798 3.03-4 2.5a224 224 0 0 1-3-25l6 1a128 128 0 0 0-2-17.5q.365-1.353 1-2.5" style="opacity:.796"/><path fill="#0d0d0d" d="M931.5 282.5h4q.014 2.712-1.5 5a180 180 0 0 0-10 15q-1.574 1.526-3.5.5a20.5 20.5 0 0 0-2.5-3.5 227 227 0 0 1-11 17l-2.5-2.5a154 154 0 0 0 10.5-17.5q4.738-4.261 7 2a198 198 0 0 0 9.5-16" style="opacity:.811"/><path fill="#171717" d="M658.5 323.5q-11.616 30.304-43 20.5-18.858-11.471-15.5-33.5 2.5-6.999 6.5-13 6.815-7.522 17-9.5 36.813-1.437 35 35.5m-4-3a11.74 11.74 0 0 0-5-3q-1.855-18.606-20.5-21-6.676.976-12.5 4-2.855-.444-5-2 19.407-14.718 37.5 2 6.937 9.032 5.5 20" style="opacity:.886"/><path fill="#d0d0d0" d="M555.5 293.5h11a200 200 0 0 0 4.5 30q.374 4.015 3 7 1.416-1.144 1.5-3a171.6 171.6 0 0 1-6-34h9q-.315 18.585 2 37h3a1849 1849 0 0 1-2-27q.003-4.779 1-9 12.15.38 24 3-4 6.001-6.5 13-3.358 22.029 15.5 33.5 31.384 9.804 43-20.5 50.607 46.438 20 108-2.11.71-2 3-1 0-1 1-1 0-1 1-23.065 26.055-57 35.5a226 226 0 0 1-26 6.5 3.65 3.65 0 0 1-1.5-1 149 149 0 0 1-3-15 476 476 0 0 1-1.5-50 94 94 0 0 0-3 25 206 206 0 0 0 5 42q-6.465.87-13 1-5.118-32.635 4-64.5-.27-3.361-2.5-1.5-7.648 33.034-5.5 67a89.4 89.4 0 0 0-15 1q-.082-35.672 15-68l-1.5-1q-16.713 32.275-16.5 69-12.015.216-24 1-3.352.442-6-1 12.412-31.986 7.5-66-11.202-46.725-58.5-51.5a20.1 20.1 0 0 0-6-1.5l1-2a41.6 41.6 0 0 0 16-5.5q28.667-21.583 30-57.5a467 467 0 0 0 39-4 1669 1669 0 0 0 10.5 30 27 27 0 0 0 3.5 6q1.697-2.361.5-5a199.6 199.6 0 0 1-10.5-32" style="opacity:.995"/><path fill="#cecece" d="M290.5 294.5a61 61 0 0 1 11 .5l74 35a227 227 0 0 0-16 43.5 7323 7323 0 0 1-81-22.5q-5.103-2.1-8.5-6.5-13.78-24.573 7.5-42.5 6.153-4.569 13-7.5" style="opacity:1"/><path fill="#d1d1d1" d="M469.5 295.5a184.4 184.4 0 0 0 39 4q.267 35.7-30 55.5-10.53 4.773-22 3-12.438-4.629-9.5-17.5a59 59 0 0 1 5-9q16.4-14.301 17.5-36" style="opacity:.994"/><path fill="#0f0f0f" d="M649.5 317.5q-4.642 24.336-29 18.5-14.594-8.755-10.5-25.5a111 111 0 0 1 6.5-10q5.824-3.024 12.5-4 18.645 2.394 20.5 21" style="opacity:.991"/><path fill="#c8c8c8" d="M611.5 298.5q2.145 1.556 5 2a111 111 0 0 0-6.5 10q-4.094 16.745 10.5 25.5 24.358 5.836 29-18.5a11.74 11.74 0 0 1 5 3q-.47 13.618-13 20.5-23.414 9.815-36.5-11.5-7.679-18.151 6.5-31" style="opacity:.989"/><path fill="#0d0d0d" d="M951.5 309.5v3a117.5 117.5 0 0 1-23 8 18.5 18.5 0 0 0-.5-6 99 99 0 0 1-17 8q-4.948-2.44.5-4.5a463 463 0 0 0 18.5-8.5q2.622 2.4 3.5 6l16-7q1.025.544 2 1" style="opacity:.792"/><path fill="#0f0f0f" d="M305.5 316.5q5.025-.247 10 .5a1802 1802 0 0 1 39 15q11.079 8.874 4.5 21.5-7.452 8.422-18.5 5.5l-38-15q-10.432-10.748-2.5-23.5a35.5 35.5 0 0 0 5.5-4" style="opacity:1"/><path fill="#121212" d="M897.5 401.5q-30.504.25-61-.5-6.25-2.25-8.5-8.5-.75-29.995-.5-60 1.518-7.77 9-10.5 31.5-1 63 0 5.75 1.75 7.5 7.5 1 32.5 0 65-2.883 6.145-9.5 7m4-7a757 757 0 0 0-1-55q-.293-8.048-8-10.5a625 625 0 0 0-50 0q-3.126 1.046-5 3.5h-6q1.218-4.163 5-6.5a521 521 0 0 1 64 1q2.726 2.7 3.5 6.5a784 784 0 0 1 0 56q-.149 3.229-2.5 5" style="opacity:.897"/><path fill="#ececec" d="M634.5 323.5q11.245-1.044 6 8.5-10.512.762-6-8.5" style="opacity:1"/><path fill="#181818" d="M900.5 339.5q.25 23.505-.5 47-1.905 6.405-8.5 7.5a600 600 0 0 1-49 0q-4.25-2.25-6.5-6.5a676 676 0 0 1 0-52l1.5-3q1.874-2.454 5-3.5a625 625 0 0 1 50 0q7.707 2.452 8 10.5" style="opacity:.907"/><path fill="#aaa" d="M827.5 332.5q-.25 30.005.5 60 2.25 6.25 8.5 8.5 30.496.75 61 .5-1.27 2.2-4 2.5-37 1-74 0-5.28-.756-7.5-5.5-1-30 0-60 1.75-3.75 5.5-5.5a50.5 50.5 0 0 1 10-.5" style="opacity:.959"/><path fill="#a0a0a0" d="M831.5 332.5h6l-1.5 3a676 676 0 0 0 0 52q2.25 4.25 6.5 6.5a600 600 0 0 0 49 0q6.595-1.095 8.5-7.5.75-23.495.5-47a757 757 0 0 1 1 55q-.385 3.414-4 3.5a505 505 0 0 1-63-1 15.8 15.8 0 0 1-3.5-5.5 582 582 0 0 1 .5-59" style="opacity:.95"/><path fill="#a4a4a4" d="M841.5 332.5q26.005-.25 52 .5l2.5 2.5q1.71 13.105 1.5 26.5l-.5 24.5q-1.395 3.078-4.5 4.5a625 625 0 0 1-50 0l-3.5-3.5a676 676 0 0 1 0-52 10.5 10.5 0 0 0 2.5-3" style="opacity:.995"/><path fill="#cbcbcb" d="M380.5 332.5a183.4 183.4 0 0 1 25.5 13q9.75 12.759 2 27-9.177 11.145-23.5 8.5a173 173 0 0 0-17-5q-1.617-1.011-2-3a233 233 0 0 1 15-40.5" style="opacity:1"/><path fill="#1a1a1a" d="M859.5 336.5q22.284-3.732 32.5 16 5.904 25.445-18.5 34.5-34.487 1.006-30.5-33.5 5.534-11.282 16.5-17" style="opacity:1"/><path fill="#a7a7a7" d="M860.5 339.5q33.177-2.58 28.5 30-8.957 19.161-29.5 13.5-21.803-11.95-10.5-34.5 4.774-6.057 11.5-9" style="opacity:1"/><path fill="#1c1c1c" d="M391.5 340.5q9.082-.672 6.5 8-5.971 2.794-12.5 2.5-6-4.5 0-9 3.312-.286 6-1.5" style="opacity:1"/><path fill="#bcbcbc" d="M391.5 343.5h4q.255 1.983-1 3.5a25.7 25.7 0 0 1-5.5 1.5q-2.493.169-3.5-2a14.34 14.34 0 0 1 6-3" style="opacity:1"/><path fill="#1a1a1a" d="M566.5 354.5q3.138.091 4.5 3l5.5 11q-4.179 7.886-10.5 14-1.886-.525-1-2a119 119 0 0 0 8.5-12q-3.588-7.05-7-14" style="opacity:1"/><path fill="#1c1c1c" d="M387.5 354.5a139 139 0 0 1 11 3.5q1.637 3.096.5 6.5-5.608 3.213-11.5-.5-5.879-4.74 0-9.5" style="opacity:1"/><path fill="#1a1a1a" d="M854.5 355.5q13.977.232 6 11.5-8.274 2.887-10-5.5.55-4.134 4-6" style="opacity:1"/><path fill="#191919" d="M873.5 355.5q7.954-1.536 10 6-3.294 9.17-11.5 4-3.407-5.705 1.5-10" style="opacity:1"/><path fill="#272324" d="M609.5 357.5q7.173 4.42 12 11.5-4.46 7.222-12 10.5z" style="opacity:1"/><path fill="#c3c3c3" d="M388.5 357.5q3.469 1.23 7 2.5 1.255 1.517 1 3.5a22.4 22.4 0 0 1-8-2.5q-1.776-1.718 0-3.5" style="opacity:1"/><path fill="#9d9d9d" d="M854.5 358.5q6.934-1.638 5.5 5-7.77 2.72-5.5-5" style="opacity:1"/><path fill="#9f9f9f" d="M874.5 358.5q6.668-.94 5 5-8.048 2.952-5-5" style="opacity:1"/><path fill="#8d8d8d" d="M460.5 361.5h6l-1 2h-11z" style="opacity:1"/><path fill="#181818" d="M377.5 363.5a12.9 12.9 0 0 1 5 .5q5.349 5.276 4.5 12.5-5.707 4.558-9-2-4.38-5.522-.5-11" style="opacity:1"/><path fill="#bebebe" d="M378.5 366.5q1.983-.255 3.5 1a27 27 0 0 0 3.5 6q-1.444 2.985-4 1-2.991-3.474-3-8" style="opacity:1"/><path fill="#d1d1d1" d="M448.5 369.5q9.513-.25 19 .5a4.46 4.46 0 0 1 2 1.5q-14.72 14.143-2.5 31 19.842 18.87 11 45-8.434 21.155-23.5 38a1163 1163 0 0 1-92 0 282 282 0 0 1-5.5-35q-1.433-17.146 1-34 41.246-31.248 90.5-47" style="opacity:1"/><path fill="#d1d1d1" d="M165.5 371.5a195 195 0 0 0 4 13q-25.736 14.89-33.5 44-7.216 26.886 1.5 53 8.443 41.425 51 43a4139 4139 0 0 1 111-3q10.875 10.78 8 26a1793 1793 0 0 1-124-.5q-28.417-1.151-55-11-50.73-27.705-44-85.5 1.356-1.063 1-3 5.061-15.13 13.5-29 23.488-37.227 66.5-47" style="opacity:.985"/><path fill="#d1d1d1" d="M476.5 371.5q22.899-.676 37.5 17 18.996 26.493 14 59a143.5 143.5 0 0 1-9.5 36 330 330 0 0 1-60 2 468 468 0 0 0 16.5-24q15.538-25.634 2-52-7.794-7.284-12-17-3.365-11.661 6.5-18.5a39 39 0 0 0 5-2.5" style="opacity:1"/><path fill="#cdcdcd" d="M393.5 384.5q1.488-.258 2 1a296 296 0 0 0-36.5 23 171.6 171.6 0 0 1 4.5-30 162 162 0 0 1 21 5.5q4.473.747 9 .5" style="opacity:1"/><path fill="#707070" d="M395.5 385.5q-.512-1.258-2-1 3.163-1.912 7-1.5z" style="opacity:1"/><path fill="#ccc" d="M171.5 391.5v1q.18 4.47 2 8.5l-12 7q-21.009 19.766-25 48.5-3.378-40.998 29-66.5 2.288-1.514 5-1.5-.356 1.937 1 3" style="opacity:.92"/><path fill="#1d1d1d" d="M627.5 390.5q28.774-3.448 37.5 24 1.816 27.19-24.5 34.5-25.71 2.024-33.5-22.5-3.929-26.273 20.5-36" style="opacity:1"/><path fill="#cacaca" d="M627.5 393.5q34.24-2.997 34.5 31-10.407 29.33-39.5 18.5-20.415-14.682-9.5-37.5 5.716-7.966 14.5-12" style="opacity:1"/><path fill="#111" d="M630.5 399.5q27.002-.751 24.5 26-10.355 21.298-31.5 10.5-15.237-15.599-1-32a48.5 48.5 0 0 1 8-4.5" style="opacity:1"/><path fill="#d0d0d0" d="m349.5 423.5 2 26a350 350 0 0 0 4 32q-2.668 2.765-7 2a542 542 0 0 1-46-6q6.033-14.309 16.5-26 14.156-15.414 30.5-28" style="opacity:1"/><path fill="#f7f7f7" d="M642.5 423.5q10.48-.254 5 8.5-10.626.713-5-8.5" style="opacity:1"/><path fill="#a4a4a4" d="M688.5 425.5a1954 1954 0 0 1 51 32q-4.724.433-9-1.5a1160 1160 0 0 0-39-24 12.4 12.4 0 0 1-5-4.5q.533-1.533 2-2" style="opacity:.922"/><path fill="#555" d="M349.5 423.5q.09-.814 1-1a183 183 0 0 1 1 27z" style="opacity:1"/><path fill="#a6a6a6" d="M683.5 431.5q2.712-.014 5 1.5a1160 1160 0 0 0 39 24q2 1 0 2-43.546 3.501-87 7 25.755-12.01 43-34.5" style="opacity:1"/><path fill="#cfcfcf" d="M81.5 480.5q12.102 46.855 58 62.5a270 270 0 0 0 44 7q27.25.764 54.5 1.5a992 992 0 0 1 66.5-.5q-11.356 7.624-25 10a439 439 0 0 1-49 4.5 590 590 0 0 1-71-4.5q-70.827-9.574-78-80.5" style="opacity:.962"/><path fill="#5d5d5d" d="M355.5 481.5q1.356 1.063 1 3-4.328.46-8-1 4.332.765 7-2" style="opacity:1"/><path fill="#686868" d="M522.5 482.5q2.648 1.442 6 1-3.29 1.946-7 0 .186-.91 1-1" style="opacity:1"/><path fill="#d0d0d0" d="M308.5 521.5q30.516-.202 61 1a352 352 0 0 0 13 21q-29.005 1.371-58 3l-11-1q1.612-4.407.5-9a7637 7637 0 0 1-5.5-15" style="opacity:.978"/><path fill="#d1d1d1" d="M377.5 522.5a454 454 0 0 1 61 6.5q16.748 3.129 30 13.5 0 1 1 1 4.28 9.774-1.5 19-11.152 17.199-30.5 22.5-9.736-4.335-17-11.5a21.9 21.9 0 0 0 6.5-4q1-2 0-4-7.257-3.727-15.5-3a145 145 0 0 1 9.5-6q5.952-10.146-6.5-10.5a944 944 0 0 0-24-2 78.7 78.7 0 0 1-13-21.5" style="opacity:.979"/><path fill="#cecece" d="M394.5 561.5a9745 9745 0 0 0-102 3 143 143 0 0 0 14-7.5 30 30 0 0 0 6-7 614 614 0 0 1 73-2l11 13a2.43 2.43 0 0 1-2 .5" style="opacity:.964"/><path fill="#cbcbcb" d="M393.5 547.5q10.55.005 21 1.5 10.647 1.096 2 7a91 91 0 0 1-12 4.5q-7.215-5.202-11-13" style="opacity:1"/><path fill="#cfcfcf" d="M474.5 549.5q12.178 17.03-.5 34a147 147 0 0 1-10.5 10q-10.857-.702-20-6.5l12-7q16.596-10.843 19-30.5" style="opacity:.96"/><path fill="#0d0d0d" d="M823.5 702.5q.569-4.6-3-3-41.001-28.539-31.5-78 15.947-52.12 70.5-56 53.436 3.334 70.5 54 10.034 46.903-26.5 77.5-38.39 25.563-80 5.5m31-133q1.983-.255 3.5 1 24.067 54.43 63.5 98.5a38 38 0 0 1-5.5 8.5q-41.685-48.34-71.5-105 4.888-2.22 10-3m8 0q5.019.755 10 2 21.947 45.683 54 84.5a35.3 35.3 0 0 1-3.5 8.5q-37.791-42.555-60.5-95m-23 3a618.4 618.4 0 0 0 74 108.5q-2.304 4.834-7 6-43.552-51.082-76-110a57 57 0 0 1 9-4.5m38 1q7.212-.798 12.5 5a698 698 0 0 0 38 60q.987 6.108-1 12a466.4 466.4 0 0 1-49.5-77m-52 5q3.483 3.129 6 7.5a363 363 0 0 1-15-1 942 942 0 0 0 9-6.5m71 2q26.682 17.36 30.5 49a456 456 0 0 1-30.5-49m-79 8a80 80 0 0 1 16 2.5q2.832 2.925 3.5 6.5a55.9 55.9 0 0 0-16-2q-7.782.569-15.5.5 4.441-6.773 12-7.5m-19 20a19.2 19.2 0 0 1 3-6.5q18.995-4.947 38 0a21.8 21.8 0 0 1 5 6 713 713 0 0 1-22-1.5 730 730 0 0 0-24 2m-5 13q-.277-4.94 3.5-8 24.753-5.918 49.5 0 3.509 3.22 6 7.5-13.13-.741-26.5-1.5-16.259.965-32.5 2m21 2a236 236 0 0 1 41 2.5q4.392 4.543 6 10.5-35.431-6.493-70.5 1-.31-5.582 1.5-11a434 434 0 0 1 22-3m-3 14a270.3 270.3 0 0 1 46 2.5 87 87 0 0 1-10.5 11.5q-27.204-3.907-54 2a84.5 84.5 0 0 1-2.5-11 3.65 3.65 0 0 1 1-1.5 640 640 0 0 1 20-3.5m52 2q4.48 4.12 8 9.5-22.416 24.05-35.5 54.5a181 181 0 0 1-11.5-5.5q15.608-32.003 39-58.5m10 13q4.44 4.42 6.5 10-18.26 18.497-27.5 43-5.531 1.68-11-.5a3.65 3.65 0 0 1-1-1.5q12.387-28.302 33-51m-55 1q13.542-.06 27 1.5a49 49 0 0 0-6.5 9.5 7.9 7.9 0 0 1-3.5 1q-6.218-.84-12.5-1a408 408 0 0 0-25.5 2.5q-3.334-4.752-4-10.5 12.726-1.393 25-3m64 12q5.03 3.545 8 9-13.112 14.1-20 32a28.8 28.8 0 0 1-14 0q8.876-23.283 26-41m-69 3a91 91 0 0 1 22 1.5q-3.3 5.056-6 10.5-10.463-.183-21 2-5.724-3.99-9-10.5a655 655 0 0 1 14-3.5m79 10q3.856 2.855 7 7a149 149 0 0 0-8.5 14q-7.745 4.582-16.5 5.5 6.986-14.715 18-26.5m-75 6a32.5 32.5 0 0 1 8 .5q.686.621 1 1.5a59 59 0 0 0-5 9 72 72 0 0 1-11-9 247 247 0 0 0 7-2m84 5q1.884-.059 3 1.5-8.847 7.593-3-1.5" style="opacity:.814"/><path fill="#d1d1d1" d="M411.5 576.5a320 320 0 0 1 20 12.5q-28.95 11.961-60 17a569 569 0 0 1-109 5 102 102 0 0 1-15-4q-4.883-1.674-8-5.5 13.709-8.655 30-10.5a5780 5780 0 0 1 107-9 296 296 0 0 0 35-5.5" style="opacity:.978"/><path fill="#cfcfcf" d="M454.5 598.5q-16.748 10.182-36 15.5-74.875 19.063-152 14-16.023-1.667-28.5-11.5-3.975-5.618-1.5-12 12.159 8.139 27 9.5a548.5 548.5 0 0 0 117-7q28.89-4.671 55.5-16.5a132 132 0 0 0 18.5 8" style="opacity:.963"/><path fill="#e1e1e1" d="M153.5 674.5q13.497-.257 11.5 13-7.76 11.304-17 1-2.598-9.28 5.5-14" style="opacity:.949"/><path fill="#e1e1e1" d="M93.5 676.5q7.82-1.108 9 6.5-1.563 7.535-9 5-5.917-5.746 0-11.5" style="opacity:.902"/><path fill="#221e1f" d="M823.5 702.5q-2.808 4.543-8 6.5a84.6 84.6 0 0 1-19 3 706 706 0 0 1-64-.5q-18.514.99-37 2.5-12.495.991-21.5 9.5a4.93 4.93 0 0 0-.5 3h-4q-.088-6.072 5-9.5 9.787-5.574 21-7a2880 2880 0 0 1 102-2q11.076-.214 21-5 1.984-1.224 2-3.5 3.569-1.6 3 3" style="opacity:.849"/><path fill="#e1e1e1" d="M124.5 704.5q20.532-1.71 24 18.5-4.74 25.12-29 17-14.013-10.422-6.5-26.5 4.567-6.141 11.5-9" style="opacity:.977"/><path fill="#0d0d0d" d="M179.5 721.5q16.507-.25 33 .5 2 1.5 0 3-16.5 1-33 0-1.776-1.718 0-3.5" style="opacity:.739"/><path fill="#0d0d0d" d="M197.5 760.5h-3a214 214 0 0 0-23-16.5q-1.255-1.517-1-3.5a10.1 10.1 0 0 1 6 1.5l20 14q1.32 2.034 1 4.5" style="opacity:.773"/></svg>